<?xml version="1.0" encoding="UTF-8" standalone="no"?>
<!-- Generator: Adobe Illustrator 19.0.0, SVG Export Plug-In . SVG Version: 6.00 Build 0)  -->

<svg
   xmlns:dc="http://purl.org/dc/elements/1.1/"
   xmlns:cc="http://creativecommons.org/ns#"
   xmlns:rdf="http://www.w3.org/1999/02/22-rdf-syntax-ns#"
   xmlns:svg="http://www.w3.org/2000/svg"
   xmlns="http://www.w3.org/2000/svg"
   xmlns:sodipodi="http://sodipodi.sourceforge.net/DTD/sodipodi-0.dtd"
   xmlns:inkscape="http://www.inkscape.org/namespaces/inkscape"
   height="32"
   width="32"
   inkscape:version="0.92.2 (unknown)"
   sodipodi:docname="comments.svg"
   xml:space="preserve"
   viewBox="0 0 32.000001 32"
   y="0px"
   x="0px"
   id="Capa_1"
   version="1.1"><metadata
     id="metadata1682"><rdf:RDF><cc:Work
         rdf:about=""><dc:format>image/svg+xml</dc:format><dc:type
           rdf:resource="http://purl.org/dc/dcmitype/StillImage" /><dc:title></dc:title></cc:Work></rdf:RDF></metadata><defs
     id="defs1680"><filter
       y="-0.25"
       height="1.5"
       inkscape:menu-tooltip="Darkens the edge with an inner blur and adds a flexible glow"
       inkscape:menu="Shadows and Glows"
       inkscape:label="Dark and Glow"
       style="color-interpolation-filters:sRGB;"
       id="filter630"><feGaussianBlur
         stdDeviation="5"
         result="result6"
         id="feGaussianBlur620" /><feComposite
         result="result8"
         in="SourceGraphic"
         operator="atop"
         in2="result6"
         id="feComposite622" /><feComposite
         result="result9"
         operator="over"
         in2="SourceAlpha"
         in="result8"
         id="feComposite624" /><feColorMatrix
         values="1 0 0 0 0 0 1 0 0 0 0 0 1 0 0 0 0 0 1 0 "
         result="result10"
         id="feColorMatrix626" /><feBlend
         in="result10"
         mode="normal"
         in2="result6"
         id="feBlend628" /></filter></defs><sodipodi:namedview
     inkscape:pagecheckerboard="true"
     inkscape:current-layer="Capa_1"
     inkscape:window-maximized="1"
     inkscape:window-y="27"
     inkscape:window-x="71"
     inkscape:cy="41.011741"
     inkscape:cx="48.221186"
     inkscape:zoom="6.3749628"
     showgrid="false"
     id="namedview1678"
     inkscape:window-height="1025"
     inkscape:window-width="1849"
     inkscape:pageshadow="2"
     inkscape:pageopacity="0"
     guidetolerance="10"
     gridtolerance="10"
     objecttolerance="10"
     borderopacity="1"
     bordercolor="#666666"
     pagecolor="#ffffff" /><g
     id="g1647"
     transform="translate(-224.002,-251.07005)" /><g
     id="g1649"
     transform="translate(-224.002,-251.07005)" /><g
     id="g1651"
     transform="translate(-224.002,-251.07005)" /><g
     id="g1653"
     transform="translate(-224.002,-251.07005)" /><g
     id="g1655"
     transform="translate(-224.002,-251.07005)" /><g
     id="g1657"
     transform="translate(-224.002,-251.07005)" /><g
     id="g1659"
     transform="translate(-224.002,-251.07005)" /><g
     id="g1661"
     transform="translate(-224.002,-251.07005)" /><g
     id="g1663"
     transform="translate(-224.002,-251.07005)" /><g
     id="g1665"
     transform="translate(-224.002,-251.07005)" /><g
     id="g1667"
     transform="translate(-224.002,-251.07005)" /><g
     id="g1669"
     transform="translate(-224.002,-251.07005)" /><g
     id="g1671"
     transform="translate(-224.002,-251.07005)" /><g
     id="g1673"
     transform="translate(-224.002,-251.07005)" /><g
     id="g1675"
     transform="translate(-224.002,-251.07005)" /><path
     style="display:inline;fill:#d9534f;fill-opacity:1;fill-rule:nonzero;stroke:none;stroke-width:0.04760956"
     d="m 14.038829,1.5347013 c -7.4910112,0 -13.5641032,6.118244 -13.5641032,13.6671867 0,7.547985 6.073092,13.667188 13.5641032,13.667188 2.33684,0 4.535432,-0.595696 6.454418,-1.643747 2.140511,1.240631 6.170937,3.641835 6.170937,3.641835 l -1.601406,-7.706083 c 1.596975,-2.242807 2.541092,-4.989024 2.541092,-7.959193 0,-7.5489427 -6.073539,-13.6671867 -13.565041,-13.6671867 z M 7.7758618,9.2426373 H 20.658906 c 0.686299,0 1.243401,0.559679 1.243401,1.2516637 0,0.692007 -0.557102,1.252602 -1.243401,1.252602 H 7.7758618 c -0.686298,0 -1.243401,-0.560595 -1.243401,-1.252602 0,-0.6919847 0.557103,-1.2516637 1.243401,-1.2516637 z m 0,4.5547907 H 20.658906 c 0.686299,0 1.243401,0.560127 1.243401,1.252603 0,0.691047 -0.557102,1.251686 -1.243401,1.251686 H 7.7758618 c -0.686298,0 -1.243401,-0.560639 -1.243401,-1.251686 0,-0.692476 0.557103,-1.252603 1.243401,-1.252603 z m 0,4.553898 H 20.658906 c 0.686299,0 1.243401,0.561533 1.243401,1.252602 0,0.691495 -0.557102,1.252581 -1.243401,1.252581 H 7.7758618 c -0.686298,0 -1.243401,-0.561086 -1.243401,-1.252581 0,-0.691069 0.557103,-1.252602 1.243401,-1.252602 z"
     id="path350"
     inkscape:connector-curvature="0" /></svg>