<?xml version="1.0" encoding="UTF-8" standalone="no"?>
<!-- Generator: Adobe Illustrator 19.0.0, SVG Export Plug-In . SVG Version: 6.00 Build 0)  -->

<svg
   xmlns:dc="http://purl.org/dc/elements/1.1/"
   xmlns:cc="http://creativecommons.org/ns#"
   xmlns:rdf="http://www.w3.org/1999/02/22-rdf-syntax-ns#"
   xmlns:svg="http://www.w3.org/2000/svg"
   xmlns="http://www.w3.org/2000/svg"
   xmlns:sodipodi="http://sodipodi.sourceforge.net/DTD/sodipodi-0.dtd"
   xmlns:inkscape="http://www.inkscape.org/namespaces/inkscape"
   version="1.1"
   id="Capa_1"
   x="0px"
   y="0px"
   viewBox="0 0 32.000001 32"
   xml:space="preserve"
   sodipodi:docname="kudosGold.svg"
   inkscape:version="0.92.2 (unknown)"
   width="32"
   height="32"><metadata
     id="metadata1682"><rdf:RDF><cc:Work
         rdf:about=""><dc:format>image/svg+xml</dc:format><dc:type
           rdf:resource="http://purl.org/dc/dcmitype/StillImage" /><dc:title></dc:title></cc:Work></rdf:RDF></metadata><defs
     id="defs1680" /><sodipodi:namedview
     pagecolor="#ffffff"
     bordercolor="#666666"
     borderopacity="1"
     objecttolerance="10"
     gridtolerance="10"
     guidetolerance="10"
     inkscape:pageopacity="0"
     inkscape:pageshadow="2"
     inkscape:window-width="1849"
     inkscape:window-height="1025"
     id="namedview1678"
     showgrid="false"
     inkscape:zoom="6.3749628"
     inkscape:cx="50.588718"
     inkscape:cy="45.892193"
     inkscape:window-x="71"
     inkscape:window-y="27"
     inkscape:window-maximized="1"
     inkscape:current-layer="Capa_1"
     inkscape:pagecheckerboard="true" /><g
     id="g1647"
     transform="translate(-224.002,-251.07005)" /><g
     id="g1649"
     transform="translate(-224.002,-251.07005)" /><g
     id="g1651"
     transform="translate(-224.002,-251.07005)" /><g
     id="g1653"
     transform="translate(-224.002,-251.07005)" /><g
     id="g1655"
     transform="translate(-224.002,-251.07005)" /><g
     id="g1657"
     transform="translate(-224.002,-251.07005)" /><g
     id="g1659"
     transform="translate(-224.002,-251.07005)" /><g
     id="g1661"
     transform="translate(-224.002,-251.07005)" /><g
     id="g1663"
     transform="translate(-224.002,-251.07005)" /><g
     id="g1665"
     transform="translate(-224.002,-251.07005)" /><g
     id="g1667"
     transform="translate(-224.002,-251.07005)" /><g
     id="g1669"
     transform="translate(-224.002,-251.07005)" /><g
     id="g1671"
     transform="translate(-224.002,-251.07005)" /><g
     id="g1673"
     transform="translate(-224.002,-251.07005)" /><g
     id="g1675"
     transform="translate(-224.002,-251.07005)" /><g
     id="g1645"
     transform="matrix(0.06078986,0,0,0.07206711,0.43776702,-2.2141231)"
     style="fill:#aa8800;fill-opacity:1"><g
       id="g1643"
       style="fill:#aa8800;fill-opacity:1"><g
         id="g1641"
         style="fill:#aa8800;fill-opacity:1"><path
           d="m 502.977,253.031 c -5.18,-3.106 -10.867,-5.221 -16.769,-6.27 4.127,-2.242 7.955,-5.087 11.37,-8.5 12.403,-12.404 17.294,-30.646 12.763,-47.607 -0.924,-3.457 -3.623,-6.157 -7.08,-7.081 -4.154,-1.109 -8.447,-1.672 -12.757,-1.672 -1.74,0 -3.467,0.096 -5.176,0.272 3.379,-3.297 6.324,-7.081 8.668,-11.312 8.504,-15.342 8.178,-34.225 -0.852,-49.279 -1.84,-3.069 -5.188,-4.908 -8.758,-4.855 -6.148,0.112 -12.12,1.401 -17.661,3.659 2.359,-4.118 4.158,-8.588 5.252,-13.324 3.945,-17.091 -1.574,-35.152 -14.403,-47.136 -2.615,-2.442 -6.336,-3.301 -9.758,-2.254 -7.76,2.379 -14.669,6.628 -20.263,12.182 -1.027,-2.483 -2.24,-4.906 -3.688,-7.223 -9.066,-14.511 -24.708,-23.174 -41.838,-23.174 -0.559,0 -1.119,0.01 -1.678,0.028 -3.578,0.122 -6.816,2.146 -8.494,5.308 -8.227,15.509 -7.564,34.384 1.729,49.259 1.445,2.313 3.076,4.46 4.834,6.465 -7.465,2.617 -14.298,7.003 -19.792,12.886 -2.441,2.615 -3.301,6.337 -2.252,9.759 3.695,12.051 11.874,22.065 22.509,28.23 -0.301,0.986 -0.469,2.02 -0.449,3.081 0.23,12.603 5.33,24.484 13.856,33.343 -0.561,0.865 -1.006,1.813 -1.279,2.839 -3.254,12.181 -1.625,25.009 4.131,35.874 -0.781,0.677 -1.475,1.462 -2.02,2.373 -6.482,10.812 -8.453,23.59 -5.916,35.616 -0.936,0.438 -1.816,1.005 -2.592,1.729 -9.211,8.604 -14.628,20.346 -15.505,32.606 -1.02,0.162 -2.023,0.465 -2.969,0.948 -11.227,5.732 -19.669,15.524 -23.892,27.066 -1.025,-0.124 -2.072,-0.109 -3.115,0.095 -17.23,3.364 -31.481,15.757 -37.195,32.344 -4.283,12.44 -3.326,25.98 2.275,37.567 -15.384,4.134 -31.542,6.352 -48.213,6.352 -16.669,0 -32.827,-2.218 -48.211,-6.352 5.601,-11.586 6.557,-25.127 2.275,-37.57 -5.713,-16.585 -19.966,-28.976 -37.196,-32.34 -1.042,-0.204 -2.089,-0.218 -3.112,-0.094 -4.224,-11.544 -12.667,-21.335 -23.892,-27.067 -0.946,-0.482 -1.95,-0.785 -2.969,-0.948 -0.877,-12.261 -6.295,-24.001 -15.508,-32.607 -0.775,-0.725 -1.655,-1.291 -2.59,-1.729 2.536,-12.029 0.565,-24.808 -5.919,-35.619 -0.546,-0.911 -1.236,-1.699 -2.013,-2.378 5.753,-10.862 7.379,-23.689 4.126,-35.867 -0.273,-1.025 -0.72,-1.973 -1.279,-2.838 8.525,-8.857 13.626,-20.739 13.857,-33.343 0.02,-1.063 -0.148,-2.096 -0.448,-3.083 10.635,-6.163 18.812,-16.179 22.507,-28.228 1.049,-3.422 0.191,-7.143 -2.252,-9.758 -5.494,-5.882 -12.326,-10.268 -19.792,-12.887 1.759,-2.005 3.388,-4.151 4.833,-6.465 9.296,-14.877 9.958,-33.753 1.728,-49.26 -1.677,-3.161 -4.916,-5.185 -8.492,-5.307 -0.559,-0.019 -1.119,-0.028 -1.678,-0.028 -17.131,0 -32.771,8.663 -41.838,23.174 -1.447,2.316 -2.66,4.739 -3.688,7.223 -5.594,-5.553 -12.503,-9.802 -20.265,-12.182 -3.42,-1.049 -7.141,-0.189 -9.756,2.254 -12.83,11.984 -18.349,30.045 -14.403,47.137 1.094,4.734 2.895,9.205 5.252,13.323 -5.541,-2.258 -11.512,-3.547 -17.659,-3.659 -3.605,-0.062 -6.918,1.786 -8.758,4.854 -9.031,15.056 -9.359,33.94 -0.855,49.279 2.345,4.23 5.29,8.015 8.67,11.312 -1.708,-0.177 -3.435,-0.272 -5.176,-0.272 -4.309,0 -8.6,0.563 -12.757,1.672 -3.457,0.924 -6.157,3.624 -7.08,7.082 -4.529,16.964 0.361,35.205 12.765,47.607 3.413,3.412 7.242,6.257 11.369,8.499 -5.9,1.05 -11.589,3.164 -16.77,6.27 -3.07,1.841 -4.922,5.182 -4.856,8.761 0.323,17.555 10.054,33.742 25.394,42.243 4.19,2.322 8.698,3.994 13.347,5.016 -5.384,2.625 -10.309,6.221 -14.467,10.673 -2.442,2.615 -3.301,6.335 -2.253,9.756 5.146,16.788 18.961,29.665 36.052,33.609 3.656,0.845 7.399,1.272 11.123,1.272 1.041,0 2.076,-0.045 3.11,-0.111 -4.438,3.982 -8.198,8.77 -10.986,14.229 -1.627,3.188 -1.428,7.001 0.523,10 9.141,14.051 24.581,22.439 41.303,22.439 0.869,0 1.75,-0.023 2.616,-0.069 4.853,-0.254 9.569,-1.25 14.035,-2.857 -3.186,5.064 -5.492,10.72 -6.67,16.755 -0.687,3.513 0.557,7.124 3.26,9.47 8.986,7.798 20.472,12.094 32.337,12.094 5.453,0 10.852,-0.906 16.05,-2.695 13.698,-4.717 24.52,-15.269 29.772,-28.505 5.724,1.66 11.552,3.074 17.467,4.238 -3.792,3.657 -7.11,7.856 -9.808,12.531 -2.761,4.783 -1.121,10.899 3.662,13.66 4.784,2.76 10.899,1.121 13.661,-3.662 6.639,-11.505 19.017,-18.651 32.302,-18.651 13.285,0 25.665,7.147 32.303,18.651 1.852,3.209 5.213,5.003 8.67,5.003 1.695,0 3.416,-0.432 4.99,-1.341 4.783,-2.761 6.422,-8.876 3.662,-13.66 -2.697,-4.674 -6.016,-8.873 -9.809,-12.532 5.916,-1.163 11.745,-2.577 17.468,-4.237 5.252,13.236 16.075,23.787 29.774,28.505 5.195,1.788 10.594,2.695 16.05,2.695 0,0 0,0 0.002,0 11.866,0 23.349,-4.295 32.333,-12.095 2.703,-2.346 3.945,-5.956 3.26,-9.469 -1.178,-6.034 -3.484,-11.69 -6.67,-16.755 4.465,1.607 9.18,2.604 14.032,2.857 0.871,0.046 1.746,0.035 2.619,0.069 16.72,0 32.161,-8.389 41.303,-22.437 1.953,-3 2.152,-6.815 0.523,-10.003 -2.787,-5.458 -6.547,-10.244 -10.984,-14.228 1.033,0.066 2.068,0.111 3.109,0.111 0,0 0,0 0.002,0 3.723,0 7.465,-0.428 11.12,-1.271 17.091,-3.943 30.905,-16.821 36.055,-33.607 1.049,-3.422 0.191,-7.144 -2.252,-9.759 -4.158,-4.451 -9.084,-8.047 -14.468,-10.672 4.646,-1.021 9.154,-2.692 13.347,-5.016 15.341,-8.503 25.071,-24.69 25.392,-42.245 0.069,-3.579 -1.783,-6.919 -4.854,-8.759 z m -385.183,32.52 c 4.665,6.721 6.388,15.212 4.513,23.33 -1.875,8.121 -7.145,14.998 -14.284,18.993 -4.664,-6.72 -6.386,-15.212 -4.511,-23.331 1.874,-8.119 7.144,-14.996 14.282,-18.992 z m -32.422,-26.42 c 4.04,-7.289 11,-12.447 18.964,-14.32 2.632,7.745 1.947,16.382 -2.093,23.67 -4.041,7.289 -11.001,12.448 -18.965,14.321 -2.633,-7.745 -1.948,-16.382 2.094,-23.671 z M 73.383,232.695 c -0.49,0 -0.98,-0.013 -1.469,-0.037 -0.396,-8.171 2.643,-16.286 8.537,-22.179 5.531,-5.533 12.886,-8.579 20.707,-8.579 0.489,0 0.979,0.012 1.467,0.036 0.396,8.172 -2.642,16.288 -8.536,22.181 -5.532,5.532 -12.886,8.578 -20.706,8.578 z M 105.1,73.227 c 4.457,-7.131 11.589,-11.887 19.685,-13.318 2.227,7.875 1.092,16.471 -3.328,23.543 -4.455,7.132 -11.586,11.888 -19.683,13.319 -2.226,-7.878 -1.092,-16.473 3.326,-23.544 z m 5.64,45.259 c 2.183,-0.504 4.41,-0.759 6.623,-0.759 5.988,0 11.831,1.875 16.71,5.267 -3.996,7.14 -10.873,12.411 -18.995,14.286 -2.182,0.504 -4.408,0.76 -6.619,0.76 0,0 0,0 -0.001,0 -5.987,-0.001 -11.832,-1.876 -16.711,-5.27 3.996,-7.139 10.873,-12.409 18.993,-14.284 z m -21.608,43.867 c 4.342,-2.406 9.238,-3.679 14.163,-3.679 3.248,0 6.46,0.538 9.509,1.579 -1.872,7.966 -7.03,14.931 -14.322,18.972 -4.34,2.406 -9.236,3.678 -14.159,3.678 -3.25,0 -6.463,-0.538 -9.513,-1.58 1.871,-7.966 7.03,-14.929 14.322,-18.97 z M 64.028,79.23 c 7.138,3.994 12.408,10.871 14.283,18.993 1.338,5.798 0.834,11.781 -1.256,17.179 -1.15,2.017 -2.27,4.048 -3.348,6.096 C 66.615,117.495 61.382,110.646 59.516,102.561 57.641,94.441 59.363,85.95 64.028,79.23 Z m -30.62,58.263 c 7.962,1.873 14.923,7.029 18.964,14.317 2.853,5.146 4.023,10.965 3.545,16.668 -0.563,2.313 -1.09,4.638 -1.572,6.972 -7.913,-1.896 -14.825,-7.035 -18.844,-14.288 -4.04,-7.288 -4.726,-15.923 -2.093,-23.669 z m -13.373,64.442 c 0.488,-0.024 0.977,-0.036 1.467,-0.036 7.822,0 15.177,3.046 20.708,8.579 4.233,4.231 6.983,9.61 8.057,15.331 0.094,2.293 0.214,4.578 0.383,6.851 -0.456,0.02 -0.912,0.034 -1.37,0.034 -7.821,0 -15.176,-3.047 -20.709,-8.578 -5.893,-5.893 -8.932,-14.007 -8.536,-22.181 z M 39.26,286.54 c -7.288,-4.039 -12.446,-11.003 -14.319,-18.969 3.049,-1.041 6.261,-1.58 9.508,-1.58 4.923,0 9.82,1.272 14.163,3.68 5.193,2.879 9.297,7.246 11.911,12.397 0.736,2.217 1.504,4.418 2.313,6.601 -3.021,1.02 -6.198,1.551 -9.411,1.551 -4.923,0 -9.821,-1.272 -14.165,-3.68 z m 34.107,57.821 c -2.213,0 -4.44,-0.256 -6.625,-0.76 -8.12,-1.874 -14.997,-7.143 -18.991,-14.284 4.877,-3.393 10.719,-5.268 16.706,-5.268 2.213,0 4.441,0.256 6.625,0.76 5.989,1.383 11.298,4.616 15.276,9.08 1.211,1.756 2.447,3.492 3.711,5.208 -4.878,3.39 -10.718,5.264 -16.702,5.264 z m 35.522,46.514 c -8.438,0.443 -16.411,-2.706 -22.2,-8.483 5.174,-6.342 12.864,-10.341 21.19,-10.778 6.168,-0.321 12.079,1.279 17.075,4.413 1.682,1.391 3.392,2.747 5.117,4.084 -5.176,6.334 -12.861,10.329 -21.182,10.764 z m 33.073,-69.872 c 6.336,5.174 10.332,12.861 10.768,21.183 0.435,8.321 -2.734,16.385 -8.494,22.193 -6.336,-5.176 -10.331,-12.863 -10.768,-21.185 -0.437,-8.321 2.733,-16.383 8.494,-22.191 z m 20.472,103.699 c -7.855,2.703 -16.567,1.881 -23.68,-2.042 3.228,-7.519 9.516,-13.482 17.397,-16.196 5.639,-1.941 11.716,-2.056 17.327,-0.521 2.088,0.916 4.189,1.805 6.311,2.653 -3.239,7.478 -9.508,13.403 -17.355,16.106 z m 26.672,-35.212 c -7.518,-3.229 -13.478,-9.517 -16.191,-17.397 -2.713,-7.879 -1.888,-16.504 2.047,-23.674 7.518,3.227 13.478,9.515 16.192,17.394 2.712,7.88 1.888,16.504 -2.048,23.677 z M 490.505,201.899 c 0.49,0 0.979,0.012 1.467,0.036 0.396,8.172 -2.643,16.287 -8.535,22.181 -5.531,5.532 -12.888,8.578 -20.71,8.578 -0.457,0 -0.914,-0.014 -1.369,-0.034 0.168,-2.273 0.289,-4.557 0.383,-6.849 1.072,-5.721 3.824,-11.102 8.057,-15.334 5.53,-5.532 12.883,-8.578 20.707,-8.578 z m -30.87,-50.087 c 4.039,-7.288 11,-12.445 18.964,-14.318 2.629,7.744 1.945,16.381 -2.096,23.67 -4.018,7.251 -10.93,12.391 -18.843,14.288 -0.482,-2.335 -1.01,-4.658 -1.572,-6.972 -0.478,-5.702 0.694,-11.522 3.547,-16.668 z m -25.938,-53.59 c 1.875,-8.12 7.145,-14.997 14.28,-18.992 4.664,6.721 6.387,15.212 4.512,23.332 -1.865,8.083 -7.098,14.933 -14.189,18.937 -1.08,-2.049 -2.197,-4.08 -3.348,-6.097 -2.091,-5.399 -2.595,-11.382 -1.255,-17.18 z m -15.78,125.894 c -5.895,-5.893 -8.932,-14.009 -8.537,-22.181 0.488,-0.024 0.977,-0.036 1.467,-0.036 7.822,0 15.177,3.047 20.71,8.579 5.895,5.894 8.934,14.009 8.537,22.179 -0.488,0.025 -0.979,0.037 -1.469,0.037 -7.823,0.001 -15.176,-3.046 -20.708,-8.578 z m 10.813,58.686 c -7.963,-1.873 -14.925,-7.03 -18.966,-14.321 -4.041,-7.287 -4.725,-15.923 -2.094,-23.67 7.963,1.873 14.925,7.031 18.964,14.321 4.043,7.288 4.727,15.925 2.096,23.67 z m 8.465,-101.479 c -3.049,1.041 -6.262,1.579 -9.51,1.579 -4.924,0 -9.82,-1.271 -14.161,-3.677 -7.291,-4.042 -12.448,-11.007 -14.321,-18.973 3.049,-1.04 6.26,-1.579 9.508,-1.579 4.922,0 9.82,1.272 14.163,3.68 7.292,4.041 12.45,11.004 14.321,18.97 z M 387.22,59.908 c 8.096,1.432 15.228,6.187 19.685,13.319 4.418,7.07 5.553,15.666 3.326,23.542 -8.096,-1.433 -15.228,-6.188 -19.685,-13.319 -4.417,-7.07 -5.552,-15.665 -3.326,-23.542 z m -9.287,63.086 c 4.879,-3.392 10.724,-5.267 16.71,-5.267 2.211,0 4.439,0.255 6.623,0.759 8.121,1.875 14.999,7.146 18.993,14.285 -4.879,3.394 -10.721,5.27 -16.71,5.27 -2.211,0 -4.438,-0.256 -6.621,-0.76 -8.122,-1.876 -14.999,-7.147 -18.995,-14.287 z m 16.278,162.557 c 7.139,3.995 12.409,10.872 14.284,18.99 1.875,8.121 0.15,16.613 -4.514,23.333 -7.137,-3.995 -12.407,-10.872 -14.28,-18.993 -1.875,-8.119 -0.152,-16.61 4.51,-23.33 z M 322.899,389.49 c -3.936,-7.171 -4.762,-15.796 -2.049,-23.675 2.713,-7.88 8.674,-14.168 16.19,-17.396 3.936,7.17 4.762,15.796 2.051,23.675 -2.712,7.878 -8.673,14.167 -16.192,17.396 z m 26.675,35.212 c -7.85,-2.703 -14.118,-8.629 -17.356,-16.106 2.156,-0.862 4.291,-1.766 6.412,-2.698 2.49,-0.68 5.072,-1.04 7.688,-1.04 3.233,0 6.441,0.54 9.535,1.604 7.881,2.715 14.171,8.678 17.397,16.197 -7.113,3.925 -15.824,4.745 -23.676,2.043 z m 28.963,-81.504 c -0.434,8.319 -4.43,16.007 -10.766,21.182 -5.76,-5.809 -8.93,-13.872 -8.494,-22.193 0.435,-8.32 4.432,-16.008 10.768,-21.183 5.761,5.808 8.929,13.87 8.492,22.194 z m 26.151,47.719 c -0.521,0 -1.045,-0.014 -1.572,-0.042 -8.32,-0.435 -16.005,-4.429 -21.179,-10.766 1.727,-1.338 3.436,-2.695 5.119,-4.087 4.996,-3.134 10.904,-4.736 17.071,-4.409 8.324,0.436 16.017,4.436 21.19,10.778 -5.429,5.418 -12.795,8.526 -20.629,8.526 z m 40.574,-47.316 c -2.184,0.504 -4.41,0.76 -6.621,0.76 h -0.002 c -5.984,0 -11.825,-1.874 -16.702,-5.264 1.262,-1.716 2.498,-3.451 3.709,-5.206 3.979,-4.465 9.287,-7.699 15.278,-9.082 2.182,-0.504 4.41,-0.76 6.623,-0.76 5.986,0 11.831,1.875 16.71,5.268 -3.997,7.14 -10.873,12.41 -18.995,14.284 z m 27.482,-57.06 c -4.342,2.406 -9.238,3.679 -14.163,3.679 -3.213,0 -6.393,-0.531 -9.412,-1.551 0.809,-2.18 1.576,-4.379 2.313,-6.593 2.611,-5.154 6.717,-9.523 11.913,-12.405 4.342,-2.407 9.238,-3.68 14.163,-3.68 3.248,0 6.459,0.539 9.51,1.58 -1.874,7.967 -7.033,14.929 -14.324,18.97 z"
           id="path1635"
           inkscape:connector-curvature="0"
           style="fill:#aa8800;fill-opacity:1" /><path
           d="m 202.251,452.55 c -5.507,0 -9.999,4.49 -9.999,9.999 0,5.508 4.492,9.998 9.999,9.998 5.507,0 9.999,-4.49 9.999,-9.998 0,-5.508 -4.492,-9.999 -9.999,-9.999 z"
           id="path1637"
           inkscape:connector-curvature="0"
           style="fill:#aa8800;fill-opacity:1" /><path
           d="m 309.756,452.55 c -5.506,0 -9.998,4.49 -9.998,9.999 0,5.508 4.492,9.998 9.998,9.998 5.508,0 9.998,-4.49 9.998,-9.998 0,-5.508 -4.49,-9.999 -9.998,-9.999 z"
           id="path1639"
           inkscape:connector-curvature="0"
           style="fill:#aa8800;fill-opacity:1" /></g></g></g><text
     xml:space="preserve"
     style="font-style:normal;font-variant:normal;font-weight:bold;font-stretch:normal;font-size:19.26840973px;line-height:1.25;font-family:sans-serif;-inkscape-font-specification:'sans-serif Bold';letter-spacing:0px;word-spacing:0px;fill:#806600;fill-opacity:1;stroke:none;stroke-width:0.07225656;"
     x="8.0600891"
     y="20.318056"
     id="text4438"
     transform="scale(0.97136504,1.0294791)"><tspan
       sodipodi:role="line"
       id="tspan4436"
       x="8.0600891"
       y="20.318056"
       style="font-style:normal;font-variant:normal;font-weight:bold;font-stretch:normal;font-size:28.90261459px;font-family:Dyuthi;-inkscape-font-specification:'Dyuthi Bold';fill:#806600;fill-opacity:1;stroke-width:0.07225656;">K</tspan></text>
</svg>