<?xml version="1.0" encoding="UTF-8" standalone="no"?>
<!-- Created with Inkscape (http://www.inkscape.org/) -->

<svg
   xmlns:dc="http://purl.org/dc/elements/1.1/"
   xmlns:cc="http://creativecommons.org/ns#"
   xmlns:rdf="http://www.w3.org/1999/02/22-rdf-syntax-ns#"
   xmlns:svg="http://www.w3.org/2000/svg"
   xmlns="http://www.w3.org/2000/svg"
   xmlns:sodipodi="http://sodipodi.sourceforge.net/DTD/sodipodi-0.dtd"
   xmlns:inkscape="http://www.inkscape.org/namespaces/inkscape"
   version="1.1"
   id="svg2"
   xml:space="preserve"
   width="63.999962"
   height="68.677055"
   viewBox="0 0 63.999962 68.677055"
   sodipodi:docname="comments_ico_red.svg"
   inkscape:version="0.92.2 (5c3e80d, 2017-08-06)"><metadata
     id="metadata8"><rdf:RDF><cc:Work
         rdf:about=""><dc:format>image/svg+xml</dc:format><dc:type
           rdf:resource="http://purl.org/dc/dcmitype/StillImage" /><dc:title></dc:title></cc:Work></rdf:RDF></metadata><defs
     id="defs6" /><sodipodi:namedview
     pagecolor="#ffffff"
     bordercolor="#666666"
     borderopacity="1"
     objecttolerance="10"
     gridtolerance="10"
     guidetolerance="10"
     inkscape:pageopacity="0"
     inkscape:pageshadow="2"
     inkscape:window-width="1861"
     inkscape:window-height="1020"
     id="namedview4"
     showgrid="false"
     inkscape:zoom="2.1777914"
     inkscape:cx="88.419172"
     inkscape:cy="-46.221744"
     inkscape:window-x="59"
     inkscape:window-y="32"
     inkscape:window-maximized="1"
     inkscape:current-layer="g12" /><g
     id="g10"
     inkscape:groupmode="layer"
     inkscape:label="ink_ext_XXXXXX"
     transform="matrix(1.3333333,0,0,-1.3333333,-242.8427,695.30331)"><g
       id="g12"
       transform="matrix(0.31398306,0,0,0.31398306,-577.82252,-677.75088)"
       style="display:inline"><path
         style="fill:#d9534f;fill-opacity:1;fill-rule:nonzero;stroke:none;stroke-width:0.22353582"
         d="m 2488.8313,3805.0728 c -35.1717,0 -63.686,-28.7263 -63.686,-64.17 0,-35.4392 28.5143,-64.17 63.686,-64.17 10.9719,0 21.2947,2.7969 30.3047,7.7177 10.0501,-5.825 28.9737,-17.0991 28.9737,-17.0991 l -7.5189,36.1815 c 7.4981,10.5304 11.9309,23.4244 11.9309,37.3699 0,35.4437 -28.5164,64.17 -63.6904,64.17 z m -29.4058,-36.1902 h 60.4883 c 3.2223,0 5.838,-2.6278 5.838,-5.8768 0,-3.2491 -2.6157,-5.8812 -5.838,-5.8812 h -60.4883 c -3.2223,0 -5.838,2.6321 -5.838,5.8812 0,3.249 2.6157,5.8768 5.838,5.8768 z m 0,-21.3856 h 60.4883 c 3.2223,0 5.838,-2.6299 5.838,-5.8812 0,-3.2446 -2.6157,-5.8769 -5.838,-5.8769 h -60.4883 c -3.2223,0 -5.838,2.6323 -5.838,5.8769 0,3.2513 2.6157,5.8812 5.838,5.8812 z m 0,-21.3814 h 60.4883 c 3.2223,0 5.838,-2.6365 5.838,-5.8812 0,-3.2467 -2.6157,-5.8811 -5.838,-5.8811 h -60.4883 c -3.2223,0 -5.838,2.6344 -5.838,5.8811 0,3.2447 2.6157,5.8812 5.838,5.8812 z"
         id="path350"
         inkscape:connector-curvature="0" /></g></g></svg>