<?xml version="1.0" encoding="UTF-8" standalone="no"?>
<!-- Created with Inkscape (http://www.inkscape.org/) -->

<svg
   xmlns:dc="http://purl.org/dc/elements/1.1/"
   xmlns:cc="http://creativecommons.org/ns#"
   xmlns:rdf="http://www.w3.org/1999/02/22-rdf-syntax-ns#"
   xmlns:svg="http://www.w3.org/2000/svg"
   xmlns="http://www.w3.org/2000/svg"
   xmlns:sodipodi="http://sodipodi.sourceforge.net/DTD/sodipodi-0.dtd"
   xmlns:inkscape="http://www.inkscape.org/namespaces/inkscape"
   version="1.1"
   id="svg2"
   xml:space="preserve"
   width="157.1716"
   height="241.60533"
   viewBox="0 0 157.1716 241.60533"
   sodipodi:docname="nofound.svg"
   inkscape:version="0.92.3 (unknown)"><metadata
     id="metadata8"><rdf:RDF><cc:Work
         rdf:about=""><dc:format>image/svg+xml</dc:format><dc:type
           rdf:resource="http://purl.org/dc/dcmitype/StillImage" /><dc:title></dc:title></cc:Work></rdf:RDF></metadata><defs
     id="defs6"><clipPath
       clipPathUnits="userSpaceOnUse"
       id="clipPath340"><path
         d="m 551.848,1322.44 c -48.368,0 -48.368,75 0,75 48.363,0 48.363,-75 0,-75"
         id="path338"
         inkscape:connector-curvature="0" /></clipPath><clipPath
       clipPathUnits="userSpaceOnUse"
       id="clipPath530"><path
         d="m 2337.5,1604.94 c -58.04,0 -58.04,90 0,90 58.04,0 58.04,-90 0,-90"
         id="path528"
         inkscape:connector-curvature="0" /></clipPath></defs><sodipodi:namedview
     pagecolor="#ffffff"
     bordercolor="#666666"
     borderopacity="1"
     objecttolerance="10"
     gridtolerance="10"
     guidetolerance="10"
     inkscape:pageopacity="0"
     inkscape:pageshadow="2"
     inkscape:window-width="1797"
     inkscape:window-height="922"
     id="namedview4"
     showgrid="false"
     inkscape:pagecheckerboard="true"
     inkscape:zoom="1.0012632"
     inkscape:cx="77.275861"
     inkscape:cy="-39.151974"
     inkscape:window-x="71"
     inkscape:window-y="27"
     inkscape:window-maximized="0"
     inkscape:current-layer="g12" /><g
     id="g10"
     inkscape:groupmode="layer"
     inkscape:label="ink_ext_XXXXXX"
     transform="matrix(1.3333333,0,0,-1.3333333,-256.05748,614.09066)"><g
       id="g12"
       transform="scale(0.1)"><path
         d="m 2268.69,2793.64 c -81.34,0 -160.68,4.3 -226.76,20.06 -128.27,34.66 -128.27,104 -8.53,138.66 27.32,7.39 66.49,9.53 109.11,9.53 29.4,0 60.44,-1.02 90.34,-2.04 11.97,-0.41 23.75,-0.81 35.18,-1.16 -21.76,-1.71 -41.23,-2.32 -60.13,-5.93 -19.01,-3.63 -24.24,-12.93 -23.83,-31.77 0.67,-30.77 8.09,-39.39 38.89,-43.72 5.29,-0.75 10.69,-1.07 16.08,-1.07 2.93,0 5.86,0.1 8.77,0.26 27.38,1.57 54.71,3.74 82.08,5.44 29.66,1.86 39.6,11.72 41.23,41.82 0.32,5.8 -0.05,11.64 -0.05,17.46 0,6.06 0,12.12 0,18.18 43.72,0.42 95.95,2.79 150.43,4.46 -0.02,-11.91 -0.05,-23.82 -0.07,-35.72 -0.07,-29.97 11.37,-46.84 38.35,-48.77 13.02,-0.94 26.08,-1.56 39.13,-1.56 25.11,0 50.16,2.3 74.7,9.12 26.99,7.49 36.08,23.6 30.61,50.6 -2.27,11.18 -9.12,20.43 -18.76,26.53 50.39,-2.32 97.09,-7.74 134.56,-18.59 93.97,-27.73 136.77,-76.27 25.64,-124.79 -39.91,-18.5 -127.33,-21.58 -201.41,-21.58 -37.04,0 -70.75,0.77 -93.52,0.77 -83.95,0 -184.43,-6.19 -282.04,-6.19 m -21.48,106.35 c 0,0 -0.01,0 -0.02,0 0.01,0 0.02,0 0.02,0 v 0 m 0.06,0 c 19.66,0.01 39.31,2.78 58.97,5.22 -19.66,-2.44 -39.31,-5.21 -58.97,-5.22 m 326.13,2.72 c -0.01,0 -0.03,0 -0.04,0 0.01,0 0.03,0 0.04,0 v 0 m 0.01,0 c 1.01,0 2.06,0.01 3.14,0.03 21.55,0.43 43.08,2.3 64.56,4.2 10.68,0.95 21.85,1.84 31.59,5.78 5.41,2.17 9.99,10.01 11.98,16.24 0.43,1.38 0.63,2.7 0.63,3.97 0,-1.27 -0.2,-2.59 -0.63,-3.97 -1.99,-6.23 -6.57,-14.07 -11.98,-16.24 -9.74,-3.94 -20.91,-4.83 -31.59,-5.78 -21.48,-1.9 -43.01,-3.77 -64.56,-4.2 -1.08,-0.02 -2.13,-0.03 -3.14,-0.03 m -244.43,5 c 0.03,0 0.05,0 0.08,0.01 -0.03,-0.01 -0.05,-0.01 -0.08,-0.01 m 5.22,0.42 c 0.85,0.06 1.69,0.12 2.54,0.17 12.69,0.82 16.33,12.18 16.41,24.16 0.07,8.82 0.24,17.64 0.42,26.45 v 0 c -0.18,-8.81 -0.35,-17.63 -0.42,-26.45 -0.08,-11.98 -3.72,-23.34 -16.41,-24.16 -0.85,-0.05 -1.69,-0.11 -2.54,-0.17 m -44.51,11.12 c -0.09,0.05 -0.18,0.1 -0.26,0.15 0.08,-0.05 0.17,-0.1 0.26,-0.15 m -64.81,14.06 c 5.49,1.27 10.83,1.88 16.1,1.88 -5.26,0 -10.61,-0.61 -16.1,-1.88 m 16.18,1.88 c -0.02,0 -0.04,0 -0.06,0 v 0 c 0.02,0 0.04,0 0.06,0 m 372.31,9.67 c -0.01,0 -0.01,0 -0.02,0 0.01,0 0.01,0 0.02,0 v 0 m 0.05,0 c 4.29,0.01 9.93,0.78 17.31,1.92 -7.39,-1.14 -13.02,-1.91 -17.31,-1.92 m 59.6,0.68 c -0.04,0.01 -0.08,0.01 -0.11,0.02 0.03,-0.01 0.07,-0.01 0.11,-0.02 m -41.88,1.31 c 0.1,0.01 0.2,0.03 0.3,0.04 -0.1,-0.01 -0.2,-0.03 -0.3,-0.04 m 0.74,0.11 c 4.47,0.7 9.03,0.99 13.64,0.99 -4.61,0 -9.17,-0.29 -13.64,-0.99 m 13.7,0.99 c -0.01,0 -0.03,0 -0.04,0 v 0 c 0.01,0 0.03,0 0.04,0"
         style="fill:#ececea;fill-opacity:1;fill-rule:nonzero;stroke:none"
         id="path346"
         inkscape:connector-curvature="0" /><path
         d="m 2822.87,4110.25 c 80.07,-1.49 144.23,53.16 166.74,130.28 17.92,61.36 -20.29,120.28 -64.68,138.36 -22.98,9.37 -46.05,19.05 -69.92,25.56 -44.86,12.22 -86.37,6.04 -123.13,-25.7 -21.37,-18.44 -34.16,-42.36 -49.23,-65.09 -29.83,-44.98 -17.09,-108.67 7.65,-140.98 31.29,-40.88 73.18,-64.15 132.57,-62.43 m -634.17,79.64 c 74.19,-3.21 126.41,15.28 158.27,72.9 9.93,17.95 17.74,37.52 23.57,57.22 17.36,58.63 -11.73,119.78 -69.18,142.29 -12.32,4.81 -25.1,8.52 -37.13,13.93 -45.34,20.42 -90.09,13.05 -131.35,-8.31 -45.68,-23.66 -71.97,-64.69 -83.13,-114.96 -10.35,-46.58 4.14,-109.6 59.86,-140.88 28.44,-15.97 58.42,-23.06 79.09,-22.19 m 258.36,-917.42 c 20.78,0 41.55,-0.11 62.33,0.03 37.52,0.25 74.59,4.12 110.6,15.11 38.41,11.72 68.6,33.33 82.9,72.57 4.53,12.42 8.56,25.15 11.19,38.07 3.81,18.67 6.49,37.61 9.07,56.51 7.04,51.18 11.73,102.45 2,153.83 -12.22,64.54 -48.03,108.57 -112.51,126.19 -19.92,5.45 -40.52,9.02 -61.04,11.51 -37.04,4.5 -74.46,6.21 -111.37,11.52 -46.6,6.69 -92.94,5.38 -138.81,-2.71 -61.28,-10.8 -101.89,-46.76 -116.34,-108.02 -7.97,-33.82 -12.41,-68.51 -17.66,-102.92 -7.78,-51.12 -8.46,-102.23 -3.05,-153.92 5.65,-54.1 51.19,-93.11 94.45,-103.19 62.18,-14.49 125.18,-14.04 188.24,-14.58 M 2289.8,3158.91 c -38.11,10.95 -72.72,19.85 -106.59,31.02 -22.78,7.51 -44.46,18.32 -66.7,27.48 -9.93,4.09 -13.61,10.61 -11.62,21.57 2.22,12.18 1.65,24.93 4.44,36.92 2.46,10.65 -1.54,15.6 -10.21,19.09 -1.54,-0.9 -3.86,-1.49 -4.06,-2.52 -8.98,-43.95 -18.28,-87.85 -14.74,-133.22 2.26,-28.76 7.25,-34.14 35.87,-36.4 19.47,-1.53 19.47,-1.53 24.98,-23.07 -18.19,-11.46 -20.78,-11.04 -39.14,1.79 -4.06,2.84 -10,3.02 -15.08,4.43 -0.94,-5.36 -2.75,-10.78 -2.58,-16.1 0.15,-3.88 3.38,-7.56 4.43,-11.54 3.5,-13.41 1,-21.05 -11.54,-36.15 -9.38,9.45 -6.79,21.25 -7.28,32.3 -0.49,11.19 -0.08,22.95 -15.38,28.09 -10.5,-20.1 1.79,-45.08 -17.14,-61.74 -10.55,5.93 -7.94,15.69 -8.45,24.16 -0.53,9.11 0.01,18.33 -1.16,27.33 -0.43,3.35 -4.79,9.06 -6.67,8.78 -4,-0.57 -9.35,-3.48 -10.97,-6.94 -4.89,-10.48 -7.97,-21.77 -12.34,-32.52 -1.48,-3.64 -4.65,-6.62 -7.97,-11.17 -8.23,7.61 -4.36,16.02 -3.84,23.46 2.35,32.27 4.81,64.55 7.7,96.78 5.81,64.58 -3.82,127.72 -19.94,189.77 -28.08,108.03 -32.5,216.36 -8.51,325.52 12.52,56.88 31.48,111.39 59.81,162.7 42.99,77.89 107.78,126.94 192.99,150.15 3.97,1.09 8.11,1.71 12.21,2.02 2.4,0.19 4.88,-0.67 8.98,-1.31 1.93,-17.65 3.92,-35.57 5.86,-53.51 0.34,-3.3 -0.79,-7.41 0.81,-9.79 3.31,-4.98 7.82,-12.56 12.12,-12.75 8.37,-0.39 12.68,6.76 11.71,15.6 -2.9,26.37 -5.38,52.8 -9.03,79.06 -4.24,30.37 -9.4,60.62 -14.5,90.86 -1.07,6.38 -3.57,12.52 -5.49,19.02 -43.56,0.25 -85.45,3.57 -126.26,15.94 -59.99,18.19 -102.66,54.58 -118.72,116.39 -10.34,39.84 -10,80.88 2.21,120.48 27.04,87.66 92.46,127.45 178.79,139.48 77.29,10.77 145.96,-14.79 209.68,-54.53 37.64,-23.47 60.19,-60.2 63.97,-104.9 5.57,-65.77 -8.69,-126.72 -60.23,-171.94 -21.4,-18.79 -48.71,-30.98 -73.76,-45.43 -7.77,-4.47 -16.97,-6.49 -28.5,-10.74 1.81,-18.49 2.55,-37.28 5.65,-55.66 7.04,-41.7 14.9,-83.25 23.38,-124.67 1.07,-5.11 7.71,-12.31 12.3,-12.75 8.58,-0.81 13.19,6.85 12.1,15.2 -1.73,13.15 -4.71,26.13 -7.4,39.15 -2,9.71 -4.38,19.35 -6.71,29.51 123.98,10.37 245.42,4.41 366.08,-33.04 -5.97,-11.73 -10.89,-22.04 -16.39,-32.05 -5.19,-9.44 -11.45,-18.33 -16.4,-27.9 -3.72,-7.16 -8.95,-15.28 0.42,-22.22 6.72,-4.98 16.55,-0.36 21.66,10.45 20.49,43.4 40.94,86.81 60.93,130.44 4.07,8.85 6.09,18.62 9.54,29.53 -7.18,3.16 -12.88,6.23 -18.92,8.24 -30.43,10.11 -57.19,26.71 -81.48,47.14 -27.89,23.46 -37.3,56.37 -41.87,90.51 -5.62,41.94 3.3,82.85 13.51,123.23 5.29,20.97 20.62,36.06 35.89,50.06 32.05,29.34 70.29,49.58 112.91,54.2 34.1,3.69 69.47,-0.63 103.87,-4.68 23.66,-2.79 46.83,-10.67 69.94,-17.23 33.03,-9.36 59.42,-30.35 81.78,-54.77 11.72,-12.81 19.49,-31.32 23.64,-48.54 17.01,-70.53 5.99,-138.33 -42.94,-191.75 -40.2,-43.86 -92.13,-73.73 -156.95,-66.06 -14.82,1.76 -29.82,1.87 -44.54,4.08 -10.69,1.61 -15.85,-2.89 -18.09,-12.16 -10.07,-41.7 -36.78,-75.85 -52.12,-115.16 -5.12,-13.14 -12.18,-25.51 -17.15,-38.69 -2.79,-7.44 -5.72,-16.72 4.28,-21.9 7.22,-3.72 14.61,2.9 19.12,14.73 7.64,20.08 15.69,40.02 24.02,59.82 2.17,5.19 5.96,9.7 9.18,14.74 26.46,-12.92 47.34,-30.32 66.13,-52.52 22.17,-26.19 42.15,-52.97 58.32,-83.34 19.17,-36.03 29.43,-74.2 32.02,-114.18 3.98,-61.25 8.39,-122.7 7.47,-183.98 -0.68,-44.5 -6.77,-89.04 -18.41,-132.86 -13.63,-51.31 -22.83,-103.81 -33.72,-155.85 -4.4,-21.1 -9.5,-42.18 -11.85,-63.55 -1.99,-18.02 -0.81,-36.43 -0.45,-54.66 0.38,-19.05 2.26,-38.11 1.82,-57.14 -0.18,-7.34 -4.95,-14.59 -8.38,-23.91 -17.17,13.88 -2.79,37.75 -22.02,47.71 -20.56,-10.4 -6.62,-32.37 -16.22,-47.07 -10.55,7.15 -5.88,17.79 -6.24,26.77 -0.31,8.11 -0.93,15.37 -11.07,16.11 -9.56,0.7 -12.95,-5.33 -14.17,-13.75 -1.87,-12.97 -4.44,-25.69 -17.62,-35.99 -6.87,11.97 -4.45,22.11 -1.39,32.17 1.68,5.55 4.96,10.84 5.48,16.44 0.42,4.32 -1.03,10.74 -4.04,12.89 -2.97,2.14 -9.34,1.15 -13.49,-0.43 -4.46,-1.7 -7.74,-6.28 -12.1,-8.5 -6.77,-3.45 -14.03,-5.97 -21.08,-8.9 -1.08,1.91 -2.16,3.82 -3.23,5.73 6.99,4.97 13.7,10.45 21.06,14.83 26.13,15.6 41.73,36.59 41.31,68.73 -0.42,32.22 1.54,64.46 2.46,96.68 0.06,2.49 0.97,5.58 -0.15,7.37 -3.19,5.12 -7.21,9.71 -10.89,14.52 -3.69,-4.66 -9.9,-8.99 -10.55,-14.02 -1.54,-12.23 -0.5,-24.78 -0.5,-38.03 -55.42,-35.14 -117.56,-54.32 -178.25,-82.29 0,-15.06 -0.24,-31.35 0.04,-47.62 0.79,-45.6 1.8,-91.21 2.71,-136.81 0.03,-1.65 -0.08,-3.32 -0.11,-4.97 -0.34,-31.06 1.71,-31.94 31.79,-27.25 13.49,2.11 27.85,0.47 41.52,-1.47 7.62,-1.1 13.98,-7.97 11.28,-16.53 -1.99,-6.23 -6.57,-14.07 -11.98,-16.24 -9.74,-3.94 -20.91,-4.83 -31.59,-5.78 -21.48,-1.9 -43.01,-3.77 -64.56,-4.2 -25.31,-0.48 -31.94,4.42 -33.29,29.19 -2.16,39.82 -2.46,79.76 -2.38,119.64 0.06,29.89 2.01,59.77 2.97,89.65 0.1,3.15 -0.76,6.33 -1.45,11.47 -61.71,-0.82 -122.6,-12.71 -185.95,-0.92 -1.55,-11.21 -4.06,-20.76 -4.01,-30.31 0.19,-38.11 1.47,-76.25 1.73,-114.37 0.19,-24.87 -0.83,-49.76 -1.02,-74.63 -0.08,-11.98 -3.72,-23.34 -16.41,-24.16 -41.91,-2.69 -83.66,-14.17 -125.55,-4.5 -7.78,23.97 -6.81,24.76 13.69,29.51 22.44,5.19 42.38,-0.62 64.81,-14.06 2.55,9.42 6.11,16.59 6.15,23.77 0.27,47.3 0.38,94.63 -0.65,141.92 -0.56,24.65 -3.51,49.25 -5.39,73.97"
         style="fill:#ffffff;fill-opacity:1;fill-rule:evenodd;stroke:none"
         id="path348"
         inkscape:connector-curvature="0" /><path
         d="m 2241.5,3322.9 c -33.77,16.47 -51.5,40.65 -55.83,74.63 -0.2,1.65 -0.16,3.37 -0.62,4.94 -16.44,55.9 19.7,104.59 63.05,127.07 43.96,22.8 85.92,19.32 128.63,-1.34 18.23,-8.82 30.15,-22.91 36.81,-41.83 2.36,-6.66 5.24,-13.13 9.02,-22.47 5.94,5.63 10.99,8.15 12.21,11.93 18.46,56.63 81.64,71.97 126.5,65.39 37.67,-5.53 70.72,-21.86 101.39,-44.79 56.37,-42.13 36.28,-146.34 -11.5,-166.77 -1.48,13.87 -2.1,27.76 -4.64,41.29 -3.8,20.21 -13.62,29.43 -30.44,30.94 -14.75,1.33 -30.14,-8.24 -37.33,-23.26 -1.99,-4.18 -3.88,-8.42 -5.99,-13.01 -31.09,43.35 -53.25,44.84 -86.56,4.67 -4.43,5.19 -8.65,10.29 -13.02,15.26 -22.59,25.7 -52.71,11.59 -63.63,-13.66 -6.08,-14.06 -8.17,-30.03 -10.73,-45.38 -1.47,-8.78 -0.27,-18 -0.27,-30.56 -19.56,1.01 -37.25,1.91 -57.56,2.97 0,19.01 0.73,36.16 -0.25,53.2 -0.75,13.08 -3.12,26.12 -5.74,38.99 -3.72,18.31 -17.56,23.92 -34.17,27.67 -17.47,3.93 -29.81,-2.44 -38.27,-16.08 -11.23,-18.14 -23.84,-36.21 -19.73,-59.81 0.95,-5.46 -0.66,-11.37 -1.33,-19.99"
         style="fill:#cfcece;fill-opacity:1;fill-rule:evenodd;stroke:none"
         id="path350"
         inkscape:connector-curvature="0" /><path
         d="m 2360.43,3739.04 c 2.66,-35.08 -2.12,-63.06 -17,-89.01 -8.29,-14.43 -20.57,-21.07 -37.15,-18.87 -13.44,1.78 -24.03,8.9 -27.15,22.04 -5.19,21.9 -5.17,44.36 2.41,65.78 1.74,4.92 8.79,10.2 14.16,11.18 20.76,3.78 41.84,5.89 64.73,8.88"
         style="fill:#ffffff;fill-opacity:1;fill-rule:evenodd;stroke:none"
         id="path352"
         inkscape:connector-curvature="0" /><path
         d="m 2451.42,3733.48 c -1.08,-21.6 -1.22,-38.91 -3.01,-56.05 -1.64,-15.75 -10.98,-27.55 -23.84,-36.25 -17.69,-11.99 -38.94,-4.16 -45.21,16.4 -1.21,3.94 -2.87,8.1 -2.62,12.07 1.37,22.14 3.26,44.26 4.95,66.09 23.69,12.39 43.95,-6.33 69.73,-2.26"
         style="fill:#ffffff;fill-opacity:1;fill-rule:evenodd;stroke:none"
         id="path354"
         inkscape:connector-curvature="0" /><path
         d="m 2326.77,3302.32 c -11.63,0.55 -18.25,0.38 -24.73,1.24 -40.99,5.48 -52.94,24.27 -40.61,64.27 2.16,7.06 5.64,13.91 9.54,20.22 5.34,8.66 11.83,15.69 23.91,14.45 11.65,-1.22 21.51,-4.67 25.09,-16.71 3.02,-10.13 5.82,-20.58 6.51,-31.05 1.08,-16.4 0.29,-32.92 0.29,-52.42"
         style="fill:#ffffff;fill-opacity:1;fill-rule:evenodd;stroke:none"
         id="path356"
         inkscape:connector-curvature="0" /><path
         d="m 2476.55,3297.02 c -19.06,0 -38.57,0 -60.61,0 -4.47,22.69 -7.03,46.19 5.82,66.1 16.18,25.09 28.46,25.56 47.23,1.09 13.98,-18.22 15.4,-38.14 7.56,-67.19"
         style="fill:#ffffff;fill-opacity:1;fill-rule:evenodd;stroke:none"
         id="path358"
         inkscape:connector-curvature="0" /><path
         d="m 2498.91,3299.38 c 0,16.9 -0.61,31.71 0.15,46.46 0.97,18.95 12.68,35.47 24.54,36.38 12.55,0.95 26.81,-11.33 33.45,-29.03 1.46,-3.85 2.97,-7.81 3.5,-11.86 1.71,-13.01 2.98,-26.07 4.72,-41.95 -22.85,0 -43.91,0 -66.36,0"
         style="fill:#ffffff;fill-opacity:1;fill-rule:evenodd;stroke:none"
         id="path360"
         inkscape:connector-curvature="0" /><path
         d="m 2542.04,3724.53 c 21.65,-3.85 38.51,-6.55 55.24,-9.93 9.39,-1.89 14.88,-8.54 12.78,-17.97 -3.02,-13.51 -6.15,-27.44 -12.26,-39.68 -5.55,-11.15 -16.6,-20.15 -30.08,-17.26 -13.62,2.92 -23.81,13.47 -25.26,27.54 -1.8,17.63 -0.42,35.57 -0.42,57.3"
         style="fill:#ffffff;fill-opacity:1;fill-rule:evenodd;stroke:none"
         id="path362"
         inkscape:connector-curvature="0" /><path
         d="m 2584.25,3300.47 c -0.47,26.4 -0.52,48.35 7.1,69.84 3.97,11.21 12.74,15.22 23.09,15.32 11.11,0.13 16.79,-8.81 17.5,-17.92 1.16,-14.64 0.33,-29.61 -1.48,-44.23 -0.53,-4.23 -6.58,-9.15 -11.23,-11.22 -9.69,-4.32 -20.12,-6.93 -34.98,-11.79"
         style="fill:#ffffff;fill-opacity:1;fill-rule:evenodd;stroke:none"
         id="path364"
         inkscape:connector-curvature="0" /><path
         d="m 2271.56,4337.1 c 0.31,34.07 -25.92,58.87 -62.92,59.53 -36.3,0.64 -66.86,-29.78 -66.31,-66.34 0.56,-37.76 26.16,-59.81 62.11,-59.92 41.19,-0.12 66.74,25.38 67.12,66.73 z m -67.19,-121.77 c -27.05,0.62 -54.77,5.41 -81.22,20.27 -47.51,26.66 -72.84,99.63 -38.06,153.8 8.89,13.87 18.99,27.4 30.65,38.96 20.68,20.5 46.19,28.96 75.67,33.01 40.42,5.56 75.2,-6.91 109.48,-23.32 46.03,-22.03 67.37,-77.03 48.59,-124.5 -7.55,-19.11 -16.5,-38.51 -28.86,-54.67 -22.53,-29.43 -55.48,-40.81 -91.62,-43.47 -7.43,-0.53 -14.93,-0.08 -24.63,-0.08"
         style="fill:#ffffff;fill-opacity:1;fill-rule:evenodd;stroke:none"
         id="path366"
         inkscape:connector-curvature="0" /><path
         d="m 2830.05,4200.54 c 37.66,0.28 65.04,26.33 64.49,61.35 -0.5,32.5 -35.79,62.41 -72.37,61.31 -31.28,-0.93 -60.3,-34.54 -59.26,-68.57 0.88,-28.58 32.87,-54.38 67.14,-54.09 z m -10.48,-66.11 c -59.64,-0.66 -118.04,41.8 -128.24,100.89 -4.55,26.33 -2.62,51.46 13.49,73.78 12.05,16.69 23.16,34.55 37.71,48.81 22.8,22.34 49.33,31.03 83.58,25.22 25.25,-4.29 50.39,-7.64 74.31,-16.59 37.45,-14 61.64,-39.97 71.68,-79.65 6.47,-25.64 -2.25,-48.1 -12.36,-69.43 -21.02,-44.28 -58.36,-68.77 -105.8,-78.27 -11.32,-2.28 -22.91,-3.21 -34.37,-4.76"
         style="fill:#ffffff;fill-opacity:1;fill-rule:evenodd;stroke:none"
         id="path368"
         inkscape:connector-curvature="0" /><path
         d="m 2289.8,3158.91 c 1.88,-24.72 4.83,-49.32 5.39,-73.97 1.03,-47.29 0.92,-94.62 0.65,-141.92 -0.04,-7.18 -3.6,-14.35 -6.15,-23.77 -22.43,13.44 -42.37,19.25 -64.81,14.06 -20.5,-4.75 -21.47,-5.54 -13.69,-29.51 41.89,-9.67 83.64,1.81 125.55,4.5 12.69,0.82 16.33,12.18 16.41,24.16 0.19,24.87 1.21,49.76 1.02,74.63 -0.26,38.12 -1.54,76.26 -1.73,114.37 -0.05,9.55 2.46,19.1 4.01,30.31 63.35,-11.79 124.24,0.1 185.95,0.92 0.69,-5.14 1.55,-8.32 1.45,-11.47 -0.96,-29.88 -2.91,-59.76 -2.97,-89.65 -0.08,-39.88 0.22,-79.82 2.38,-119.64 1.35,-24.77 7.98,-29.67 33.29,-29.19 21.55,0.43 43.08,2.3 64.56,4.2 10.68,0.95 21.85,1.84 31.59,5.78 5.41,2.17 9.99,10.01 11.98,16.24 2.7,8.56 -3.66,15.43 -11.28,16.53 -13.67,1.94 -28.03,3.58 -41.52,1.47 -30.08,-4.69 -32.13,-3.81 -31.79,27.25 0.03,1.65 0.14,3.32 0.11,4.97 -0.91,45.6 -1.92,91.21 -2.71,136.81 -0.28,16.27 -0.04,32.56 -0.04,47.62 60.69,27.97 122.83,47.15 178.25,82.29 0,13.25 -1.04,25.8 0.5,38.03 0.65,5.03 6.86,9.36 10.55,14.02 3.68,-4.81 7.7,-9.4 10.89,-14.52 1.12,-1.79 0.21,-4.88 0.15,-7.37 -0.92,-32.22 -2.88,-64.46 -2.46,-96.68 0.42,-32.14 -15.18,-53.13 -41.31,-68.73 -7.36,-4.38 -14.07,-9.86 -21.06,-14.83 1.07,-1.91 2.15,-3.82 3.23,-5.73 7.05,2.93 14.31,5.45 21.08,8.9 4.36,2.22 7.64,6.8 12.1,8.5 4.15,1.58 10.52,2.57 13.49,0.43 3.01,-2.15 4.46,-8.57 4.04,-12.89 -0.52,-5.6 -3.8,-10.89 -5.48,-16.44 -3.06,-10.06 -5.48,-20.2 1.39,-32.17 13.18,10.3 15.75,23.02 17.62,35.99 1.22,8.42 4.61,14.45 14.17,13.75 10.14,-0.74 10.76,-8 11.07,-16.11 0.36,-8.98 -4.31,-19.62 6.24,-26.77 9.6,14.7 -4.34,36.67 16.22,47.07 19.23,-9.96 4.85,-33.83 22.02,-47.71 3.43,9.32 8.2,16.57 8.38,23.91 0.44,19.03 -1.44,38.09 -1.82,57.14 -0.36,18.23 -1.54,36.64 0.45,54.66 2.35,21.37 7.45,42.45 11.85,63.55 10.89,52.04 20.09,104.54 33.72,155.85 11.64,43.82 17.73,88.36 18.41,132.86 0.92,61.28 -3.49,122.73 -7.47,183.98 -2.59,39.98 -12.85,78.15 -32.02,114.18 -16.17,30.37 -36.15,57.15 -58.32,83.34 -18.79,22.2 -39.67,39.6 -66.13,52.52 -3.22,-5.04 -7.01,-9.55 -9.18,-14.74 -8.33,-19.8 -16.38,-39.74 -24.02,-59.82 -4.51,-11.83 -11.9,-18.45 -19.12,-14.73 -10,5.18 -7.07,14.46 -4.28,21.9 4.97,13.18 12.03,25.55 17.15,38.69 15.34,39.31 42.05,73.46 52.12,115.16 2.24,9.27 7.4,13.77 18.09,12.16 14.72,-2.21 29.72,-2.32 44.54,-4.08 64.82,-7.67 116.75,22.2 156.95,66.06 48.93,53.42 59.95,121.22 42.94,191.75 -4.15,17.22 -11.92,35.73 -23.64,48.54 -22.36,24.42 -48.75,45.41 -81.78,54.77 -23.11,6.56 -46.28,14.44 -69.94,17.23 -34.4,4.05 -69.77,8.37 -103.87,4.68 -42.62,-4.62 -80.86,-24.86 -112.91,-54.2 -15.27,-14 -30.6,-29.09 -35.89,-50.06 -10.21,-40.38 -19.13,-81.29 -13.51,-123.23 4.57,-34.14 13.98,-67.05 41.87,-90.51 24.29,-20.43 51.05,-37.03 81.48,-47.14 6.04,-2.01 11.74,-5.08 18.92,-8.24 -3.45,-10.91 -5.47,-20.68 -9.54,-29.53 -19.99,-43.63 -40.44,-87.04 -60.93,-130.44 -5.11,-10.81 -14.94,-15.43 -21.66,-10.45 -9.37,6.94 -4.14,15.06 -0.42,22.22 4.95,9.57 11.21,18.46 16.4,27.9 5.5,10.01 10.42,20.32 16.39,32.05 -120.66,37.45 -242.1,43.41 -366.08,33.04 2.33,-10.16 4.71,-19.8 6.71,-29.51 2.69,-13.02 5.67,-26 7.4,-39.15 1.09,-8.35 -3.52,-16.01 -12.1,-15.2 -4.59,0.44 -11.23,7.64 -12.3,12.75 -8.48,41.42 -16.34,82.97 -23.38,124.67 -3.1,18.38 -3.84,37.17 -5.65,55.66 11.53,4.25 20.73,6.27 28.5,10.74 25.05,14.45 52.36,26.64 73.76,45.43 51.54,45.22 65.8,106.17 60.23,171.94 -3.78,44.7 -26.33,81.43 -63.97,104.9 -63.72,39.74 -132.39,65.3 -209.68,54.53 -86.33,-12.03 -151.75,-51.82 -178.79,-139.48 -12.21,-39.6 -12.55,-80.64 -2.21,-120.48 16.06,-61.81 58.73,-98.2 118.72,-116.39 40.81,-12.37 82.7,-15.69 126.26,-15.94 1.92,-6.5 4.42,-12.64 5.49,-19.02 5.1,-30.24 10.26,-60.49 14.5,-90.86 3.65,-26.26 6.13,-52.69 9.03,-79.06 0.97,-8.84 -3.34,-15.99 -11.71,-15.6 -4.3,0.19 -8.81,7.77 -12.12,12.75 -1.6,2.38 -0.47,6.49 -0.81,9.79 -1.94,17.94 -3.93,35.86 -5.86,53.51 -4.1,0.64 -6.58,1.5 -8.98,1.31 -4.1,-0.31 -8.24,-0.93 -12.21,-2.02 -85.21,-23.21 -150,-72.26 -192.99,-150.15 -28.33,-51.31 -47.29,-105.82 -59.81,-162.7 -23.99,-109.16 -19.57,-217.49 8.51,-325.52 16.12,-62.05 25.75,-125.19 19.94,-189.77 -2.89,-32.23 -5.35,-64.51 -7.7,-96.78 -0.52,-7.44 -4.39,-15.85 3.84,-23.46 3.32,4.55 6.49,7.53 7.97,11.17 4.37,10.75 7.45,22.04 12.34,32.52 1.62,3.46 6.97,6.37 10.97,6.94 1.88,0.28 6.24,-5.43 6.67,-8.78 1.17,-9 0.63,-18.22 1.16,-27.33 0.51,-8.47 -2.1,-18.23 8.45,-24.16 18.93,16.66 6.64,41.64 17.14,61.74 15.3,-5.14 14.89,-16.9 15.38,-28.09 0.49,-11.05 -2.1,-22.85 7.28,-32.3 12.54,15.1 15.04,22.74 11.54,36.15 -1.05,3.98 -4.28,7.66 -4.43,11.54 -0.17,5.32 1.64,10.74 2.58,16.1 5.08,-1.41 11.02,-1.59 15.08,-4.43 18.36,-12.83 20.95,-13.25 39.14,-1.79 -5.51,21.54 -5.51,21.54 -24.98,23.07 -28.62,2.26 -33.61,7.64 -35.87,36.4 -3.54,45.37 5.76,89.27 14.74,133.22 0.2,1.03 2.52,1.62 4.06,2.52 8.67,-3.49 12.67,-8.44 10.21,-19.09 -2.79,-11.99 -2.22,-24.74 -4.44,-36.92 -1.99,-10.96 1.69,-17.48 11.62,-21.57 22.24,-9.16 43.92,-19.97 66.7,-27.48 33.87,-11.17 68.48,-20.07 106.59,-31.02 m -52.53,869.51 c -3.44,24.6 -6.84,48.84 -9.75,69.64 -43.52,7.79 -83.89,12.45 -122.87,22.57 -69.04,17.91 -131.89,84.95 -134.78,166.94 -1.19,34.2 -0.38,67.33 8.58,100.91 13.31,49.87 45.67,84.09 85.37,112.61 55.45,39.84 117.77,49.49 184.76,40.66 47.08,-6.2 89.62,-23.61 131,-44.98 70.05,-36.18 105.61,-114.48 88.56,-193.8 -2.98,-13.8 -6.58,-27.48 -10.34,-41.09 -15.46,-55.96 -49.93,-96.47 -100.79,-123.65 -14.48,-7.73 -28.76,-15.85 -44.78,-24.69 3.23,-19.86 6.66,-40.91 10.64,-65.4 129.59,10.53 257.05,0.37 382.67,-34.22 7.31,17.21 13.41,31.57 19.43,45.76 -24.25,14.45 -47.67,27.96 -70.66,42.2 -36.34,22.51 -53.53,58.41 -63.71,97.58 -12.75,49.06 -3.23,97.97 10.02,145.09 8.24,29.34 27.48,53.95 52.97,73.18 23.36,17.61 47.2,33.07 74.82,43.68 40.81,15.66 81.85,19.5 124.34,10.41 35.55,-7.61 71.41,-14.03 106.51,-23.38 31.18,-8.32 56.26,-29.14 79.05,-50.53 30.15,-28.26 38.05,-67.38 40.67,-106.99 4.13,-62.44 -13.19,-120.49 -52.92,-167.18 -43.24,-50.83 -100.11,-81.72 -170.24,-79.41 -15.69,0.51 -31.37,1.49 -48.6,2.34 -7.06,-15.8 -13.75,-30.73 -21.09,-47.13 5.43,-3.91 10.16,-8.47 15.76,-11.22 38.6,-18.94 65.12,-50.97 91.11,-83.51 49.03,-61.41 72.21,-131.92 73.17,-210.14 0.61,-48.88 1.69,-97.77 1.95,-146.65 0.29,-57.75 -11.22,-113.64 -26.44,-169.08 -17.74,-64.62 -36.91,-129.14 -44.11,-195.94 -3.17,-29.34 0.35,-59.45 1.36,-89.19 0.62,-18.5 1.14,-36.73 -11.97,-51.96 -2.15,-2.52 -3.77,-6.1 -6.48,-7.39 -4.3,-2.05 -10.76,-5.09 -13.82,-3.34 -8.25,4.69 -17.04,1.51 -25.76,-1.68 -12.12,-4.42 -24.11,-8.84 -34.39,7.8 -10.09,-10.36 -19.79,-21.86 -34.45,-14.79 -18.06,8.68 -16.71,26.83 -17.09,44.48 -8.37,0 -16.42,-0.69 -24.31,0.12 -23.68,2.46 -31.63,19.62 -17.35,38.3 5.41,7.08 12.45,13.8 20.2,18.07 33.55,18.52 45.29,46.68 39.32,85.97 -51.67,-22.49 -102.4,-44.54 -154.86,-67.36 1.48,-56.88 3.01,-114.64 4.58,-174.44 10.43,1.56 19.27,3.32 28.18,4.15 26.48,2.49 49,-12.1 53.49,-34.25 5.47,-27 -3.62,-43.11 -30.61,-50.6 -37.3,-10.36 -75.75,-10.3 -113.83,-7.56 -26.98,1.93 -38.42,18.8 -38.35,48.77 0.13,62.31 0.26,124.62 0.26,186.92 0,3.13 -1.3,6.25 -1.69,7.96 -49.78,0 -98.31,0 -148.94,0 0,-62.39 0,-122.1 0.01,-181.8 0,-5.82 0.37,-11.66 0.05,-17.46 -1.63,-30.1 -11.57,-39.96 -41.23,-41.82 -27.37,-1.7 -54.7,-3.87 -82.08,-5.44 -8.26,-0.47 -16.69,-0.35 -24.85,0.81 -30.8,4.33 -38.22,12.95 -38.89,43.72 -0.41,18.84 4.82,28.14 23.83,31.77 20.92,4 42.53,4.31 67.17,6.53 -6.64,57.55 8.05,117.88 -4.91,178.32 -55.45,17.81 -111.16,35.71 -168.76,54.23 -0.35,-5.08 -1.21,-11.99 -1.18,-18.91 0.14,-26.04 0.26,-26.04 25.27,-29.5 20.06,-2.78 39.96,-25.73 38.03,-45.76 -1.17,-12.21 -8.13,-22.27 -20.66,-25.49 -11.01,-2.84 -22.55,-3.66 -33.94,-5.39 -8.28,-54.48 -29.25,-58.3 -54.54,-42.19 -19.85,-12.73 -24.36,-11.99 -47.43,8.22 -10.26,-5.5 -20.71,-15.25 -33.66,-5.77 -13.73,10.05 -11.91,24.75 -10.02,38.78 6.49,47.69 12.62,95.41 10.47,143.66 -1.33,29.68 -5.12,58.57 -13.94,87.72 -13.15,43.47 -20.76,88.77 -28.73,133.64 -5.37,30.15 -9.37,60.84 -10.3,91.41 -1.7,56.52 2.94,112.77 15.21,168.21 20.01,90.37 52.83,174.7 116.36,244.13 48.57,53.07 110.83,80.07 184.93,93.82"
         style="fill:#231f20;fill-opacity:1;fill-rule:evenodd;stroke:none"
         id="path370"
         inkscape:connector-curvature="0" /><path
         d="m 2584.25,3300.47 c 14.86,4.86 25.29,7.47 34.98,11.79 4.65,2.07 10.7,6.99 11.23,11.22 1.81,14.62 2.64,29.59 1.48,44.23 -0.71,9.11 -6.39,18.05 -17.5,17.92 -10.35,-0.1 -19.12,-4.11 -23.09,-15.32 -7.62,-21.49 -7.57,-43.44 -7.1,-69.84 z m -42.21,424.06 c 0,-21.73 -1.38,-39.67 0.42,-57.3 1.45,-14.07 11.64,-24.62 25.26,-27.54 13.48,-2.89 24.53,6.11 30.08,17.26 6.11,12.24 9.24,26.17 12.26,39.68 2.1,9.43 -3.39,16.08 -12.78,17.97 -16.73,3.38 -33.59,6.08 -55.24,9.93 z m -43.13,-425.15 c 22.45,0 43.51,0 66.36,0 -1.74,15.88 -3.01,28.94 -4.72,41.95 -0.53,4.05 -2.04,8.01 -3.5,11.86 -6.64,17.7 -20.9,29.98 -33.45,29.03 -11.86,-0.91 -23.57,-17.43 -24.54,-36.38 -0.76,-14.75 -0.15,-29.56 -0.15,-46.46 z m -22.36,-2.36 c 7.84,29.05 6.42,48.97 -7.56,67.19 -18.77,24.47 -31.05,24 -47.23,-1.09 -12.85,-19.91 -10.29,-43.41 -5.82,-66.1 22.04,0 41.55,0 60.61,0 z m -149.78,5.3 c 0,19.5 0.79,36.02 -0.29,52.42 -0.69,10.47 -3.49,20.92 -6.51,31.05 -3.58,12.04 -13.44,15.49 -25.09,16.71 -12.08,1.24 -18.57,-5.79 -23.91,-14.45 -3.9,-6.31 -7.38,-13.16 -9.54,-20.22 -12.33,-40 -0.38,-58.79 40.61,-64.27 6.48,-0.86 13.1,-0.69 24.73,-1.24 z m 124.65,431.16 c -25.78,-4.07 -46.04,14.65 -69.73,2.26 -1.69,-21.83 -3.58,-43.95 -4.95,-66.09 -0.25,-3.97 1.41,-8.13 2.62,-12.07 6.27,-20.56 27.52,-28.39 45.21,-16.4 12.86,8.7 22.2,20.5 23.84,36.25 1.79,17.14 1.93,34.45 3.01,56.05 z m -90.99,5.56 c -22.89,-2.99 -43.97,-5.1 -64.73,-8.88 -5.37,-0.98 -12.42,-6.26 -14.16,-11.18 -7.58,-21.42 -7.6,-43.88 -2.41,-65.78 3.12,-13.14 13.71,-20.26 27.15,-22.04 16.58,-2.2 28.86,4.44 37.15,18.87 14.88,25.95 19.66,53.93 17,89.01 z m 270.25,-36.12 c -8.12,-22.21 -12.14,-43.29 -22.85,-60.13 -17.96,-28.27 -49.94,-29.13 -70.91,-3.3 -6.7,8.25 -9.82,20.89 -10.88,31.9 -1.75,17.98 -0.47,36.29 -0.47,54.74 -20.94,5.33 -40.1,7.83 -59.19,2.97 -1.79,-20.54 -1.85,-39.85 -5.49,-58.48 -4.86,-24.99 -18.32,-45.81 -44.32,-52.16 -23.58,-5.77 -42.02,4.87 -53.56,26.53 -0.21,0.36 -1.49,0.15 -3.99,0.32 -1.88,-2.27 -4.45,-5.3 -6.94,-8.37 -16.74,-20.59 -37.7,-28.06 -58.8,-20.92 -19.75,6.69 -31.13,24.95 -31.61,51.47 -0.29,15.56 -0.06,31.14 -0.06,49.36 -7.29,-4.02 -13.83,-6.03 -18.14,-10.29 -14.19,-14.01 -27.16,-28.78 -33.88,-48.5 -17.57,-51.61 -22.39,-105.3 -27.2,-159.01 -0.05,-0.59 2.2,-1.38 4,-2.45 18.48,19.73 36.28,39.39 62.23,51.85 37.12,17.8 73.9,16.89 111.34,7.34 29.57,-7.54 54.09,-23.94 64.91,-50.71 19.74,14.43 36.97,30.3 56.96,41.03 51.13,27.47 101.55,13.67 150.59,-7.92 29.24,-12.87 53.69,-32.32 72.73,-59.62 8.16,56.67 11.26,112.52 -12.76,166.02 -12.7,28.33 -34.82,47.51 -61.71,58.33 z M 2241.5,3322.9 c 0.67,8.62 2.28,14.53 1.33,19.99 -4.11,23.6 8.5,41.67 19.73,59.81 8.46,13.64 20.8,20.01 38.27,16.08 16.61,-3.75 30.45,-9.36 34.17,-27.67 2.62,-12.87 4.99,-25.91 5.74,-38.99 0.98,-17.04 0.25,-34.19 0.25,-53.2 20.31,-1.06 38,-1.96 57.56,-2.97 0,12.56 -1.2,21.78 0.27,30.56 2.56,15.35 4.65,31.32 10.73,45.38 10.92,25.25 41.04,39.36 63.63,13.66 4.37,-4.97 8.59,-10.07 13.02,-15.26 33.31,40.17 55.47,38.68 86.56,-4.67 2.11,4.59 4,8.83 5.99,13.01 7.19,15.02 22.58,24.59 37.33,23.26 16.82,-1.51 26.64,-10.73 30.44,-30.94 2.54,-13.53 3.16,-27.42 4.64,-41.29 47.78,20.43 67.87,124.64 11.5,166.77 -30.67,22.93 -63.72,39.26 -101.39,44.79 -44.86,6.58 -108.04,-8.76 -126.5,-65.39 -1.22,-3.78 -6.27,-6.3 -12.21,-11.93 -3.78,9.34 -6.66,15.81 -9.02,22.47 -6.66,18.92 -18.58,33.01 -36.81,41.83 -42.71,20.66 -84.67,24.14 -128.63,1.34 -43.35,-22.48 -79.49,-71.17 -63.05,-127.07 0.46,-1.57 0.42,-3.29 0.62,-4.94 4.33,-33.98 22.06,-58.16 55.83,-74.63 z m 205.56,-50.43 c -63.06,0.54 -126.06,0.09 -188.24,14.58 -43.26,10.08 -88.8,49.09 -94.45,103.19 -5.41,51.69 -4.73,102.8 3.05,153.92 5.25,34.41 9.69,69.1 17.66,102.92 14.45,61.26 55.06,97.22 116.34,108.02 45.87,8.09 92.21,9.4 138.81,2.71 36.91,-5.31 74.33,-7.02 111.37,-11.52 20.52,-2.49 41.11,-6.07 61.04,-11.51 64.48,-17.62 100.29,-61.66 112.51,-126.19 9.73,-51.38 5.04,-102.65 -2,-153.83 -2.58,-18.9 -5.26,-37.84 -9.07,-56.51 -2.63,-12.92 -6.66,-25.65 -11.19,-38.07 -14.3,-39.24 -44.49,-60.85 -82.9,-72.57 -36.01,-10.99 -73.08,-14.86 -110.6,-15.11 -20.78,-0.14 -41.55,-0.03 -62.33,-0.03"
         style="fill:#231f20;fill-opacity:1;fill-rule:evenodd;stroke:none"
         id="path372"
         inkscape:connector-curvature="0" /><path
         d="m 2204.37,4215.33 c 9.7,0 17.2,-0.45 24.63,0.08 36.14,2.66 69.09,14.04 91.62,43.47 12.36,16.16 21.31,35.56 28.86,54.67 18.78,47.47 -2.56,102.47 -48.59,124.5 -34.28,16.41 -69.06,28.88 -109.48,23.32 -29.48,-4.05 -54.99,-12.51 -75.67,-33.01 -11.66,-11.56 -21.76,-25.09 -30.65,-38.96 -34.78,-54.17 -9.45,-127.14 38.06,-153.8 26.45,-14.86 54.17,-19.65 81.22,-20.27 z m -15.67,-25.44 c -20.67,-0.87 -50.65,6.22 -79.09,22.19 -55.72,31.28 -70.21,94.3 -59.86,140.88 11.16,50.27 37.45,91.3 83.13,114.96 41.26,21.36 86.01,28.73 131.35,8.31 12.03,-5.41 24.81,-9.12 37.13,-13.93 57.45,-22.51 86.54,-83.66 69.18,-142.29 -5.83,-19.7 -13.64,-39.27 -23.57,-57.22 -31.86,-57.62 -84.08,-76.11 -158.27,-72.9"
         style="fill:#231f20;fill-opacity:1;fill-rule:evenodd;stroke:none"
         id="path374"
         inkscape:connector-curvature="0" /><path
         d="m 2819.57,4134.43 c 11.46,1.55 23.05,2.48 34.37,4.76 47.44,9.5 84.78,33.99 105.8,78.27 10.11,21.33 18.83,43.79 12.36,69.43 -10.04,39.68 -34.23,65.65 -71.68,79.65 -23.92,8.95 -49.06,12.3 -74.31,16.59 -34.25,5.81 -60.78,-2.88 -83.58,-25.22 -14.55,-14.26 -25.66,-32.12 -37.71,-48.81 -16.11,-22.32 -18.04,-47.45 -13.49,-73.78 10.2,-59.09 68.6,-101.55 128.24,-100.89 z m 3.3,-24.18 c -59.39,-1.73 -101.28,21.56 -132.57,62.43 -24.74,32.31 -37.48,96 -7.65,140.98 15.06,22.73 27.86,46.65 49.23,65.09 36.76,31.74 78.27,37.92 123.13,25.69 23.87,-6.5 46.94,-16.18 69.92,-25.55 44.39,-18.08 82.6,-77 64.68,-138.36 -22.51,-77.12 -86.67,-131.77 -166.74,-130.28"
         style="fill:#231f20;fill-opacity:1;fill-rule:evenodd;stroke:none"
         id="path376"
         inkscape:connector-curvature="0" /><path
         d="m 2630.68,3702.92 c 26.89,-10.82 49.01,-30 61.71,-58.33 24.02,-53.5 20.92,-109.35 12.76,-166.02 -19.04,27.3 -43.49,46.75 -72.73,59.62 -49.04,21.59 -99.46,35.39 -150.59,7.92 -19.99,-10.73 -37.22,-26.6 -56.96,-41.03 -10.82,26.77 -35.34,43.17 -64.91,50.71 -37.44,9.55 -74.22,10.46 -111.34,-7.34 -25.95,-12.46 -43.75,-32.12 -62.23,-51.85 -1.8,1.07 -4.05,1.86 -4,2.45 4.81,53.71 9.63,107.4 27.2,159.01 6.72,19.72 19.69,34.49 33.88,48.5 4.31,4.26 10.85,6.27 18.14,10.29 0,-18.22 -0.23,-33.8 0.06,-49.36 0.48,-26.52 11.86,-44.78 31.61,-51.47 21.1,-7.14 42.06,0.33 58.8,20.92 2.49,3.07 5.06,6.1 6.94,8.37 2.5,-0.17 3.78,0.04 3.99,-0.32 11.54,-21.66 29.98,-32.3 53.56,-26.53 26,6.35 39.46,27.17 44.32,52.16 3.64,18.63 3.7,37.94 5.49,58.48 19.09,4.86 38.25,2.36 59.19,-2.97 0,-18.45 -1.28,-36.76 0.47,-54.74 1.06,-11.01 4.18,-23.65 10.88,-31.9 20.97,-25.83 52.95,-24.97 70.91,3.3 10.71,16.84 14.73,37.92 22.85,60.13"
         style="fill:#231f20;fill-opacity:1;fill-rule:evenodd;stroke:none"
         id="path378"
         inkscape:connector-curvature="0" /><path
         d="m 2630.68,3702.92 -1.86,-4.64 c 25.87,-10.44 46.84,-28.65 59.01,-55.74 13.56,-30.21 18.28,-61.21 18.29,-93 0,-23.07 -2.5,-46.53 -5.92,-70.25 l 4.95,-0.72 4.1,2.86 c -19.54,28.04 -44.81,48.15 -74.81,61.34 -29.85,13.12 -60.57,23.62 -92.16,23.64 -20.74,0.01 -41.82,-4.6 -62.82,-15.89 -20.74,-11.17 -38.08,-27.21 -57.54,-41.41 l 2.95,-4.03 4.64,1.87 c -11.59,28.66 -37.78,45.94 -68.31,53.69 -16.77,4.27 -33.53,6.88 -50.35,6.88 -21.41,0.01 -42.91,-4.26 -64.39,-14.56 -27.04,-13 -45.28,-33.29 -63.72,-52.94 l 3.65,-3.42 2.55,4.3 c -1.2,0.71 -2.3,1.2 -2.92,1.53 l -0.32,0.18 -0.04,0.02 -1.35,-2.15 1.79,1.77 -0.44,0.38 -1.35,-2.15 1.79,1.77 -3.23,-3.22 h 4.52 c -0.08,2.06 -1.01,2.9 -1.29,3.22 l -3.23,-3.22 h 4.52 -4.87 l 4.82,-0.71 0.05,0.71 h -4.87 l 4.82,-0.71 0.03,0.29 c 4.8,53.71 9.63,106.97 26.95,157.84 6.31,18.54 18.61,32.69 32.66,46.56 2.94,3.08 9.2,5.24 17.04,9.46 l -2.41,4.38 h -5 c 0,-11.19 -0.09,-21.39 -0.09,-31.25 0,-6.16 0.04,-12.18 0.15,-18.2 v 0 c 0.25,-13.94 3.37,-26.05 9.32,-35.71 5.93,-9.66 14.77,-16.74 25.69,-20.41 5.7,-1.93 11.47,-2.9 17.17,-2.9 17.44,-0.02 33.89,9.08 47.11,25.41 2.45,3.01 5,6.02 6.91,8.33 l -3.85,3.19 -0.35,-4.99 c 1.44,-0.1 2.58,-0.09 3.1,-0.1 v 0.03 0 -0.03 0.03 0 l 0.73,4.07 -1.81,-3.71 1.08,-0.36 0.73,4.07 -1.81,-3.71 2.07,4.24 -4.1,-2.33 c 0.59,-1.05 1.48,-1.65 2.03,-1.91 l 2.07,4.24 -4.1,-2.33 4.35,2.47 -4.41,-2.35 c 5.01,-9.41 11.37,-17.09 19.08,-22.45 7.69,-5.36 16.75,-8.3 26.59,-8.29 4.36,0 8.86,0.57 13.49,1.7 14.04,3.41 24.99,10.93 32.82,20.85 7.84,9.93 12.67,22.14 15.22,35.22 v 0 c 3.75,19.26 3.78,38.73 5.56,59 l -4.98,0.43 1.23,-4.84 c 6.68,1.69 13.38,2.44 20.24,2.44 11.54,0 23.57,-2.13 36.48,-5.41 l 1.24,4.84 h -5 c 0,-10.83 -0.45,-21.73 -0.46,-32.7 0,-7.48 0.22,-15 0.95,-22.53 1.17,-11.56 4.25,-24.92 11.98,-34.56 10.82,-13.36 24.87,-20.52 38.98,-20.52 15.25,-0.03 30.03,8.45 40.03,24.29 11.37,18.01 15.32,39.37 23.33,61.09 l -4.7,1.72 -1.86,-4.64 1.86,4.64 -4.69,1.72 c -8.25,-22.7 -12.34,-43.51 -22.38,-59.16 -8.65,-13.52 -20.08,-19.62 -31.59,-19.66 -10.67,0.01 -21.87,5.35 -31.21,16.82 -5.67,6.86 -8.84,18.78 -9.8,29.23 -0.69,7.07 -0.9,14.27 -0.9,21.56 0,10.69 0.46,21.6 0.46,32.7 0,2.28 -1.56,4.29 -3.77,4.85 -13.35,3.39 -26.18,5.72 -38.95,5.72 -7.59,0 -15.15,-0.83 -22.71,-2.75 -2.06,-0.53 -3.56,-2.29 -3.74,-4.41 -1.8,-20.81 -1.89,-39.97 -5.42,-57.96 v 0 c -2.31,-11.91 -6.65,-22.6 -13.25,-30.92 -6.61,-8.32 -15.39,-14.4 -27.35,-17.35 -3.91,-0.95 -7.62,-1.41 -11.11,-1.41 -7.89,0.02 -14.74,2.26 -20.89,6.5 -6.12,4.26 -11.53,10.62 -15.96,18.94 l -0.06,0.12 c -0.65,1.14 -1.62,1.82 -2.29,2.13 -1.2,0.55 -1.78,0.53 -2.25,0.59 -1.28,0.08 -2.02,0.02 -3.45,0.12 -1.6,0.11 -3.17,-0.56 -4.2,-1.8 -1.85,-2.24 -4.44,-5.29 -6.97,-8.4 -11.97,-14.67 -25.5,-21.71 -39.35,-21.72 -4.57,0 -9.23,0.77 -13.97,2.37 -8.83,3.02 -15.56,8.41 -20.38,16.19 -4.79,7.77 -7.6,18.06 -7.83,30.64 v 0 c -0.11,5.94 -0.15,11.9 -0.15,18.02 0,9.79 0.09,20.01 0.09,31.25 0,1.77 -0.93,3.4 -2.45,4.3 -1.53,0.9 -3.41,0.93 -4.96,0.08 -6.75,-3.82 -13.56,-5.68 -19.24,-11.11 -14.33,-14.16 -27.98,-29.55 -35.1,-50.45 -17.82,-52.36 -22.63,-106.47 -27.45,-160.17 l 4.98,-0.45 -4.94,0.74 -0.06,-0.76 c 0.02,-1.69 0.73,-2.76 1.19,-3.35 0.87,-1.02 1.41,-1.28 1.9,-1.6 1.36,-0.8 2.56,-1.29 3.36,-1.78 2.01,-1.19 4.59,-0.82 6.19,0.88 18.54,19.81 35.88,38.83 60.76,50.76 20.1,9.64 39.97,13.57 60.06,13.58 15.78,0 31.71,-2.45 47.87,-6.57 28.61,-7.33 51.46,-22.87 61.52,-47.75 0.57,-1.42 1.79,-2.51 3.26,-2.93 1.48,-0.42 3.08,-0.13 4.32,0.77 20.02,14.67 37.13,30.37 56.37,40.67 19.56,10.49 38.81,14.69 58.09,14.7 29.32,0.02 58.79,-9.87 88.13,-22.79 28.47,-12.55 52.11,-31.36 70.63,-57.91 1.18,-1.68 3.26,-2.47 5.26,-2 2,0.47 3.5,2.12 3.8,4.15 3.45,23.96 6.02,47.88 6.02,71.68 0,32.76 -4.9,65.32 -19.17,97.1 -13.23,29.57 -36.5,49.72 -64.4,60.92 -1.26,0.5 -2.66,0.48 -3.9,-0.07 -1.24,-0.55 -2.2,-1.58 -2.66,-2.85 l 4.69,-1.72"
         style="fill:#231f20;fill-opacity:1;fill-rule:nonzero;stroke:none"
         id="path380"
         inkscape:connector-curvature="0" /><path
         d="m 2204.83,4289.44 c 24.39,-0.2 40.52,9.91 48.65,30.48 7.03,17.79 2.87,35.28 -11.21,47.03 -12.34,10.32 -48.42,14.37 -61.39,6.9 -15.41,-8.88 -26.3,-36.59 -21.43,-54.51 5.64,-20.66 19.32,-29.67 45.38,-29.9 z m 66.73,47.66 c -0.38,-41.35 -25.93,-66.85 -67.12,-66.73 -35.95,0.11 -61.55,22.16 -62.11,59.92 -0.55,36.56 30.01,66.98 66.31,66.34 37,-0.66 63.23,-25.46 62.92,-59.53"
         style="fill:#231f20;fill-opacity:1;fill-rule:evenodd;stroke:none"
         id="path382"
         inkscape:connector-curvature="0" /><path
         d="m 2824.87,4302.49 c -9.14,-2.26 -20.47,-1.94 -26.95,-7.37 -12.08,-10.11 -21.17,-24.17 -17.31,-41.36 4.02,-17.89 17.65,-28.47 34.39,-31.97 11.53,-2.4 24.82,-1.48 36.28,1.73 21.28,5.97 30.26,25.78 23.66,46.75 -7.17,22.81 -21.29,31.42 -50.07,32.22 z m 5.18,-101.95 c -34.27,-0.29 -66.26,25.51 -67.14,54.09 -1.04,34.03 27.98,67.64 59.26,68.57 36.58,1.1 71.87,-28.81 72.37,-61.31 0.55,-35.02 -26.83,-61.07 -64.49,-61.35"
         style="fill:#231f20;fill-opacity:1;fill-rule:evenodd;stroke:none"
         id="path384"
         inkscape:connector-curvature="0" /><path
         d="m 2204.83,4289.44 c -26.06,0.23 -39.74,9.24 -45.38,29.9 -4.87,17.92 6.02,45.63 21.43,54.51 12.97,7.47 49.05,3.42 61.39,-6.9 14.08,-11.75 18.24,-29.24 11.21,-47.03 -8.13,-20.57 -24.26,-30.68 -48.65,-30.48"
         style="fill:#231f20;fill-opacity:1;fill-rule:evenodd;stroke:none"
         id="path386"
         inkscape:connector-curvature="0" /><path
         d="m 2204.83,4289.44 0.05,5 c -12.5,0.11 -21.42,2.35 -27.65,6.46 -6.2,4.13 -10.31,10.21 -12.95,19.75 v 0 c -0.67,2.44 -1,5.21 -1,8.18 -0.02,7.56 2.22,16.35 5.95,23.9 3.7,7.57 8.95,13.84 14.14,16.79 3.12,1.88 10.04,3.22 17.8,3.16 7.15,0.01 15.09,-0.96 22.03,-2.7 6.94,-1.71 12.9,-4.33 15.86,-6.86 v 0 c 8.53,-7.18 12.74,-16.26 12.77,-26.4 0,-4.77 -0.97,-9.8 -3,-14.96 v 0 c -3.74,-9.41 -9.03,-16.03 -16.02,-20.5 -7,-4.45 -15.95,-6.81 -27.25,-6.82 h -0.69 l -0.04,-5 -0.04,-4.99 0.77,-0.01 c 12.67,-0.01 23.67,2.69 32.62,8.38 8.96,5.68 15.64,14.31 19.95,25.27 v 0 c 2.46,6.21 3.7,12.5 3.7,18.63 0.03,13.04 -5.74,25.25 -16.36,34.07 v 0 c -5.02,4.15 -12.02,6.89 -19.84,8.89 -7.82,1.95 -16.43,3 -24.46,3 -8.77,-0.05 -16.76,-1.11 -22.79,-4.5 -7.68,-4.47 -13.74,-12.2 -18.12,-21.03 -4.34,-8.85 -6.97,-18.86 -6.98,-28.32 0,-3.72 0.41,-7.36 1.35,-10.81 v 0 c 2.99,-11.11 8.54,-19.86 17.1,-25.47 8.54,-5.6 19.49,-7.98 33.06,-8.1 l 0.04,4.99"
         style="fill:#231f20;fill-opacity:1;fill-rule:nonzero;stroke:none"
         id="path388"
         inkscape:connector-curvature="0" /><path
         d="m 2824.87,4302.49 c 28.78,-0.8 42.9,-9.41 50.07,-32.22 6.6,-20.97 -2.38,-40.78 -23.66,-46.75 -11.46,-3.21 -24.75,-4.13 -36.28,-1.73 -16.74,3.5 -30.37,14.08 -34.39,31.97 -3.86,17.19 5.23,31.25 17.31,41.36 6.48,5.43 17.81,5.11 26.95,7.37"
         style="fill:#231f20;fill-opacity:1;fill-rule:evenodd;stroke:none"
         id="path390"
         inkscape:connector-curvature="0" /><path
         d="m 2824.87,4302.49 -0.14,-5 c 13.95,-0.38 23.74,-2.69 30.6,-7.08 6.83,-4.38 11.43,-10.92 14.84,-21.64 v -0.01 c 1.29,-4.09 1.9,-8.07 1.9,-11.83 -0.01,-6.82 -1.97,-12.88 -5.65,-17.79 -3.68,-4.9 -9.1,-8.72 -16.49,-10.8 -6.61,-1.86 -13.95,-2.91 -21.08,-2.91 -4.44,0 -8.79,0.41 -12.83,1.25 -7.65,1.61 -14.42,4.79 -19.67,9.44 -5.25,4.67 -9.06,10.77 -10.87,18.74 v 0 c -0.53,2.37 -0.77,4.65 -0.77,6.84 -0.04,11.51 6.86,21.58 16.42,29.58 v 0.01 c 2.05,1.76 5.66,2.98 10.18,3.78 4.49,0.84 9.68,1.32 14.77,2.57 l -1.21,4.85 -0.14,-5 0.14,5 -1.2,4.85 c -4.06,-1.01 -9.1,-1.51 -14.18,-2.43 -5.05,-0.96 -10.34,-2.3 -14.78,-5.96 v 0 c -10.77,-9 -19.97,-21.54 -20,-37.25 0,-2.94 0.33,-5.96 1.02,-9.04 v 0 c 2.22,-9.92 7.23,-18.05 13.99,-24.02 6.76,-5.99 15.17,-9.84 24.25,-11.75 4.82,-1 9.84,-1.46 14.88,-1.46 8.1,0.01 16.27,1.18 23.78,3.28 9.28,2.59 16.75,7.69 21.79,14.43 5.06,6.74 7.66,15.03 7.65,23.79 0,4.84 -0.79,9.84 -2.36,14.84 v -0.01 c -3.76,12.09 -9.8,21.27 -19.01,27.09 -9.19,5.83 -20.86,8.22 -35.69,8.64 l -1.34,-0.15 1.2,-4.85"
         style="fill:#231f20;fill-opacity:1;fill-rule:nonzero;stroke:none"
         id="path392"
         inkscape:connector-curvature="0" /><path
         d="m 2206.19,4311.5 c -13.03,0.12 -19.86,4.63 -22.68,14.95 -2.44,8.96 3,22.82 10.71,27.26 6.48,3.73 24.53,1.71 30.69,-3.46 7.04,-5.87 9.12,-14.61 5.61,-23.51 -4.06,-10.28 -12.13,-15.33 -24.33,-15.24"
         style="fill:#ffffff;fill-opacity:1;fill-rule:evenodd;stroke:none"
         id="path394"
         inkscape:connector-curvature="0" /><path
         d="m 2826.63,4281.97 c 14.39,-0.39 21.46,-4.7 25.03,-16.11 3.3,-10.48 -1.19,-20.38 -11.83,-23.36 -5.73,-1.61 -12.37,-2.07 -18.13,-0.88 -8.38,1.76 -15.2,7.05 -17.21,16 -1.92,8.59 2.62,15.62 8.66,20.67 3.25,2.72 8.91,2.55 13.48,3.68"
         style="fill:#ffffff;fill-opacity:1;fill-rule:evenodd;stroke:none"
         id="path396"
         inkscape:connector-curvature="0" /><path
         d="m 2243.26,3457.35 c 19.35,0 19.35,30 0,30 -19.34,0 -19.34,-30 0,-30"
         style="fill:#231f20;fill-opacity:1;fill-rule:nonzero;stroke:none"
         id="path398"
         inkscape:connector-curvature="0" /><path
         d="m 2596.87,3457.35 c 19.34,0 19.34,30 0,30 -19.35,0 -19.35,-30 0,-30"
         style="fill:#231f20;fill-opacity:1;fill-rule:nonzero;stroke:none"
         id="path400"
         inkscape:connector-curvature="0" /><path
         d="m 2368.07,3394.95 c 19.34,0 19.34,30 0,30 -19.35,0 -19.35,-30 0,-30"
         style="fill:#231f20;fill-opacity:1;fill-rule:nonzero;stroke:none"
         id="path402"
         inkscape:connector-curvature="0" /><path
         d="m 2333.39,3488.83 c 14.51,0 14.51,22.5 0,22.5 -14.51,0 -14.51,-22.5 0,-22.5"
         style="fill:#231f20;fill-opacity:1;fill-rule:nonzero;stroke:none"
         id="path404"
         inkscape:connector-curvature="0" /><path
         d="m 2499.79,3433.36 c 14.51,0 14.51,22.5 0,22.5 -14.52,0 -14.52,-22.5 0,-22.5"
         style="fill:#231f20;fill-opacity:1;fill-rule:nonzero;stroke:none"
         id="path406"
         inkscape:connector-curvature="0" /><path
         d="m 2652.32,3419.5 c 14.52,0 14.52,22.5 0,22.5 -14.51,0 -14.51,-22.5 0,-22.5"
         style="fill:#231f20;fill-opacity:1;fill-rule:nonzero;stroke:none"
         id="path408"
         inkscape:connector-curvature="0" /><path
         d="m 2527.53,3499.51 c 9.68,0 9.68,15 0,15 -9.68,0 -9.68,-15 0,-15"
         style="fill:#231f20;fill-opacity:1;fill-rule:nonzero;stroke:none"
         id="path410"
         inkscape:connector-curvature="0" /><path
         d="m 2215.53,3409.37 c 9.67,0 9.67,15 0,15 -9.68,0 -9.68,-15 0,-15"
         style="fill:#231f20;fill-opacity:1;fill-rule:nonzero;stroke:none"
         id="path412"
         inkscape:connector-curvature="0" /><path
         d="m 2449.82,3916.07 c 0,-16.17 0,-32.34 0,-48.52 0,-9.67 15,-9.67 15,0 0,16.18 0,32.35 0,48.52 0,9.68 -15,9.68 -15,0"
         style="fill:#231f20;fill-opacity:1;fill-rule:nonzero;stroke:none"
         id="path414"
         inkscape:connector-curvature="0" /><path
         d="m 2512.23,3916.07 c 0,-16.17 0,-32.34 0,-48.52 0,-9.67 15,-9.67 15,0 0,16.18 0,32.35 0,48.52 0,9.68 -15,9.68 -15,0"
         style="fill:#231f20;fill-opacity:1;fill-rule:nonzero;stroke:none"
         id="path416"
         inkscape:connector-curvature="0" /><path
         d="m 2099.39,3661.37 c -58.03,0 -58.03,90 0,90 58.04,0 58.04,-90 0,-90"
         style="fill:#d3d5d1;fill-opacity:1;fill-rule:nonzero;stroke:none"
         id="path418"
         inkscape:connector-curvature="0" /><path
         d="m 2822.2,3648.37 c -58.04,0 -58.04,90 0,90 58.03,0 58.03,-90 0,-90"
         style="fill:#d3d5d1;fill-opacity:1;fill-rule:nonzero;stroke:none"
         id="path420"
         inkscape:connector-curvature="0" /><path
         d="m 2076.65,4576.95 c 8.71,-22.38 21.1,-42.71 37.9,-59.96 10.13,-10.42 26.02,5.51 15.9,15.9 -13.95,14.35 -24.84,31.38 -32.1,50.04 -5.2,13.37 -26.96,7.56 -21.7,-5.98"
         style="fill:#231f20;fill-opacity:1;fill-rule:nonzero;stroke:none"
         id="path422"
         inkscape:connector-curvature="0" /><path
         d="m 2166.25,4594.94 c 2.39,-20.76 2.5,-41.62 2.5,-62.5 0,-14.51 22.5,-14.51 22.5,0 0,20.88 -0.11,41.74 -2.5,62.5 -1.64,14.24 -24.16,14.4 -22.5,0"
         style="fill:#231f20;fill-opacity:1;fill-rule:nonzero;stroke:none"
         id="path424"
         inkscape:connector-curvature="0" /><path
         d="m 2270.29,4598.12 c -9.76,-20.22 -15.93,-41.67 -23.64,-62.69 -5,-13.65 16.74,-19.48 21.7,-5.98 7.03,19.16 12.47,38.89 21.36,57.31 6.28,13.01 -13.12,24.42 -19.42,11.36"
         style="fill:#231f20;fill-opacity:1;fill-rule:nonzero;stroke:none"
         id="path426"
         inkscape:connector-curvature="0" /><path
         d="m 2359.15,4575.43 c -7.48,-21.99 -16.75,-43.29 -25,-65 -5.16,-13.58 16.6,-19.41 21.7,-5.98 8.24,21.71 17.51,43.01 25,65 4.69,13.77 -17.05,19.64 -21.7,5.98"
         style="fill:#231f20;fill-opacity:1;fill-rule:nonzero;stroke:none"
         id="path428"
         inkscape:connector-curvature="0" /><path
         d="m 1985.29,4514.26 c 13.41,-20.32 33.47,-29.98 54.03,-41.53 12.67,-7.12 24.01,12.32 11.36,19.42 -16.72,9.4 -35.01,16.87 -45.97,33.47 -7.95,12.05 -27.44,0.79 -19.42,-11.36"
         style="fill:#231f20;fill-opacity:1;fill-rule:nonzero;stroke:none"
         id="path430"
         inkscape:connector-curvature="0" /><path
         d="m 2893.75,4524.94 c -0.68,-22.24 -9.51,-43.06 -14.6,-64.51 -3.34,-14.11 18.35,-20.09 21.7,-5.98 5.58,23.53 14.65,46.05 15.4,70.49 0.45,14.52 -22.06,14.47 -22.5,0"
         style="fill:#231f20;fill-opacity:1;fill-rule:nonzero;stroke:none"
         id="path432"
         inkscape:connector-curvature="0" /><path
         d="m 2788.75,4527.44 c 2.4,-20.78 2.6,-41.72 5,-62.5 1.64,-14.24 24.16,-14.4 22.5,0 -2.4,20.78 -2.6,41.72 -5,62.5 -1.64,14.24 -24.16,14.4 -22.5,0"
         style="fill:#231f20;fill-opacity:1;fill-rule:nonzero;stroke:none"
         id="path434"
         inkscape:connector-curvature="0" /><path
         d="m 2995.28,4498.12 c -12.32,-17.94 -19.49,-38.55 -30,-57.5 -7.04,-12.7 12.4,-24.05 19.44,-11.36 10.5,18.95 17.67,39.56 30,57.5 8.23,12 -11.27,23.24 -19.44,11.36"
         style="fill:#231f20;fill-opacity:1;fill-rule:nonzero;stroke:none"
         id="path436"
         inkscape:connector-curvature="0" /><path
         d="m 3079.54,4437.89 c -15.36,-12.93 -29.56,-27.13 -42.5,-42.5 -9.28,-11.01 6.55,-27.01 15.92,-15.9 12.94,15.37 27.13,29.56 42.5,42.5 11.11,9.35 -4.89,25.19 -15.92,15.9"
         style="fill:#231f20;fill-opacity:1;fill-rule:nonzero;stroke:none"
         id="path438"
         inkscape:connector-curvature="0" /><path
         d="m 2671.65,4504.45 c 5.23,-21.38 17.05,-39.7 25,-60 5.23,-13.35 26.99,-7.55 21.7,5.98 -7.93,20.25 -19.81,38.74 -25,60 -3.45,14.09 -25.14,8.12 -21.7,-5.98"
         style="fill:#231f20;fill-opacity:1;fill-rule:nonzero;stroke:none"
         id="path440"
         inkscape:connector-curvature="0" /></g></g></svg>