<?xml version="1.0" encoding="UTF-8" standalone="no"?>
<!-- Generator: Adobe Illustrator 19.0.0, SVG Export Plug-In . SVG Version: 6.00 Build 0)  -->

<svg
   xmlns:dc="http://purl.org/dc/elements/1.1/"
   xmlns:cc="http://creativecommons.org/ns#"
   xmlns:rdf="http://www.w3.org/1999/02/22-rdf-syntax-ns#"
   xmlns:svg="http://www.w3.org/2000/svg"
   xmlns="http://www.w3.org/2000/svg"
   xmlns:sodipodi="http://sodipodi.sourceforge.net/DTD/sodipodi-0.dtd"
   xmlns:inkscape="http://www.inkscape.org/namespaces/inkscape"
   height="32"
   width="32"
   inkscape:version="0.92.2 (unknown)"
   sodipodi:docname="link.svg"
   xml:space="preserve"
   viewBox="0 0 32.000001 32"
   y="0px"
   x="0px"
   id="Capa_1"
   version="1.1"><metadata
     id="metadata1682"><rdf:RDF><cc:Work
         rdf:about=""><dc:format>image/svg+xml</dc:format><dc:type
           rdf:resource="http://purl.org/dc/dcmitype/StillImage" /><dc:title></dc:title></cc:Work></rdf:RDF></metadata><defs
     id="defs1680"><filter
       y="-0.25"
       height="1.5"
       inkscape:menu-tooltip="Darkens the edge with an inner blur and adds a flexible glow"
       inkscape:menu="Shadows and Glows"
       inkscape:label="Dark and Glow"
       style="color-interpolation-filters:sRGB;"
       id="filter630"><feGaussianBlur
         stdDeviation="5"
         result="result6"
         id="feGaussianBlur620" /><feComposite
         result="result8"
         in="SourceGraphic"
         operator="atop"
         in2="result6"
         id="feComposite622" /><feComposite
         result="result9"
         operator="over"
         in2="SourceAlpha"
         in="result8"
         id="feComposite624" /><feColorMatrix
         values="1 0 0 0 0 0 1 0 0 0 0 0 1 0 0 0 0 0 1 0 "
         result="result10"
         id="feColorMatrix626" /><feBlend
         in="result10"
         mode="normal"
         in2="result6"
         id="feBlend628" /></filter></defs><sodipodi:namedview
     inkscape:pagecheckerboard="true"
     inkscape:current-layer="Capa_1"
     inkscape:window-maximized="1"
     inkscape:window-y="27"
     inkscape:window-x="71"
     inkscape:cy="41.011741"
     inkscape:cx="48.221186"
     inkscape:zoom="6.3749628"
     showgrid="false"
     id="namedview1678"
     inkscape:window-height="1025"
     inkscape:window-width="1849"
     inkscape:pageshadow="2"
     inkscape:pageopacity="0"
     guidetolerance="10"
     gridtolerance="10"
     objecttolerance="10"
     borderopacity="1"
     bordercolor="#666666"
     pagecolor="#ffffff" /><g
     id="g1647"
     transform="translate(-224.002,-251.07005)" /><g
     id="g1649"
     transform="translate(-224.002,-251.07005)" /><g
     id="g1651"
     transform="translate(-224.002,-251.07005)" /><g
     id="g1653"
     transform="translate(-224.002,-251.07005)" /><g
     id="g1655"
     transform="translate(-224.002,-251.07005)" /><g
     id="g1657"
     transform="translate(-224.002,-251.07005)" /><g
     id="g1659"
     transform="translate(-224.002,-251.07005)" /><g
     id="g1661"
     transform="translate(-224.002,-251.07005)" /><g
     id="g1663"
     transform="translate(-224.002,-251.07005)" /><g
     id="g1665"
     transform="translate(-224.002,-251.07005)" /><g
     id="g1667"
     transform="translate(-224.002,-251.07005)" /><g
     id="g1669"
     transform="translate(-224.002,-251.07005)" /><g
     id="g1671"
     transform="translate(-224.002,-251.07005)" /><g
     id="g1673"
     transform="translate(-224.002,-251.07005)" /><g
     id="g1675"
     transform="translate(-224.002,-251.07005)" /><g
     id="g12"
     transform="matrix(0.18448727,0,0,-0.18672198,-446.32051,552.26192)"><path
       d="m 2430.6173,2857.5413 c 0.3482,-0.082 0.8319,-0.3342 1.5142,-0.9395 0.9932,-0.8669 1.5821,-1.3109 2.8977,-1.8414 1.3157,-0.5305 1.8438,-1.3156 3.4189,-2.1008 1.582,-0.7945 1.0562,-0.2688 3.1594,-2.636 2.1078,-2.3672 1.8437,-2.3672 2.3695,-3.6852 0.5258,-1.3157 1.3157,-2.629 1.8438,-3.4212 0.5235,-0.7898 2.1055,-1.3156 2.8954,-1.8437 0.7898,-0.5211 2.1031,-1.0539 2.893,-1.0539 0.7899,0 3.1594,-2.3696 4.4751,-2.6243 1.3156,-0.2688 1.3156,-2.9047 1.3156,-2.9047 l -1.3156,-3.6782 -1.0586,-3.947 1.0586,-3.1594 c 0,0 -1.5797,-1.3203 -2.6313,-1.3203 -0.9651,0 -1.3017,-0.6099 -2.3532,-0.3225 -10.0438,9.3731 -17.3231,21.6346 -20.4825,35.4781 z m 116.7911,-15.6756 c 0,-0.7922 -0.2617,-2.9001 -0.5281,-3.947 -0.2641,-1.0539 -0.7922,-2.9 -1.0516,-3.9493 -0.264,-1.0562 -1.5774,-3.157 -2.3695,-3.6828 -0.7876,-0.5258 -2.1009,-2.1079 -2.8931,-2.3719 -0.7898,-0.2664 -1.318,1.8461 -1.0539,2.8977 0.2641,1.0539 1.5797,3.9469 1.5797,3.9469 0,0 0.2664,1.5774 0.5258,2.636 0.2641,1.0469 3.4235,2.3649 3.4235,2.3649 l 2.1055,3.9492 c 0,0 0.2617,-1.0586 0.2617,-1.8437 z m -30.2669,51.5836 c 0.6193,0.4908 2.6337,-0.7898 2.6337,-0.7898 0,0 6.5759,-1.318 7.6298,-2.1032 1.0539,-0.7922 2.9,-1.3203 3.4211,-2.1102 0.5258,-0.7875 2.3719,-3.1547 2.6313,-3.9469 0.2664,-0.7875 1.5821,-3.6876 1.8438,-4.7368 0.2641,-1.0516 1.0563,-3.6829 1.8391,-5.0009 0.7945,-1.318 5.2649,-7.104 6.8446,-9.7353 l 4.7439,0.7852 c 0,0 -0.5305,-2.3672 -1.0586,-3.1548 -0.5235,-0.7945 -2.1055,-2.8953 -2.8954,-3.9469 -0.7899,-1.0516 -1.8414,-2.6336 -3.4165,-3.9493 -1.582,-1.3156 -1.5844,-2.6289 -2.3742,-3.6829 -0.7852,-1.0539 -1.8438,-3.4211 -1.8438,-3.4211 0,0 0.5258,-5.2673 0.7945,-6.3189 0.2594,-1.0539 -1.8461,-3.9422 -1.8461,-3.9422 l -2.3766,-2.3766 -3.1641,-4.2063 0.2524,-3.947 c 0,0 -2.3976,-1.8438 -3.7156,-2.8977 -1.3109,-1.0539 -1.103,-1.8414 -2.1569,-2.8953 -1.0516,-1.0516 -5.1668,-2.8954 -6.2207,-3.1595 -1.0516,-0.2617 -6.854,-1.0539 -6.854,-1.0539 v 2.3672 l -0.1215,2.6337 c 0,0 -0.8015,3.1617 -1.5914,4.2133 -0.7898,1.0516 -0.4463,2.6337 -1.762,3.9493 -1.318,1.3133 -1.8064,2.3672 -2.0657,3.1618 -0.2618,0.7851 0.2804,3.1524 0.2804,3.1524 0,0 1.0656,2.8977 1.5914,3.9469 0.5258,1.0539 0,2.6336 -0.5211,3.6852 -0.5258,1.0539 -0.7852,3.6876 -0.7852,4.4751 0,0.7899 -2.1055,2.1055 -2.8977,2.8954 -0.7875,0.7922 -0.5258,1.8461 -0.5258,2.8906 0,1.061 -0.7875,3.4282 -0.5258,5.2696 0.2641,1.8345 -2.3649,0.5258 -3.9493,0 -1.575,-0.5257 -2.6266,0.5258 -2.6266,2.1055 0,1.5798 -2.8977,0.2571 -4.7368,-0.7921 -1.8461,-1.0516 -3.9516,-1.0516 -6.0595,-1.8391 -2.1008,-0.7899 -3.157,0.7875 -3.157,0.7875 0,0 -1.8415,1.5727 -3.1548,2.3719 -1.3203,0.7828 -2.636,2.3649 -3.6852,3.6782 -1.0539,1.3203 -3.6852,5.2696 -3.947,6.8399 -0.264,1.5844 0,2.6384 0,4.4821 0,1.8415 0,2.893 0.2618,4.211 0.2617,1.3133 1.0539,2.8931 1.8391,4.211 0.7922,1.3157 3.6875,2.8907 4.475,3.4212 0.7899,0.5234 2.6313,2.1008 2.6313,3.1547 0,1.054 1.054,1.5798 1.5774,2.629 0.5281,1.0539 2.3719,3.6829 4.7392,2.6313 0,0 2.1008,0.2594 2.8906,0.5211 0.7876,0.2664 2.8884,1.0469 3.9376,1.5727 1.0516,0.5305 3.6666,0.7758 3.6666,0.7758 0,0 2.0727,-0.8249 2.8649,-0.8249 0.7876,0 3.3581,0.4581 3.3581,0.4581 0,0 1.1824,-3.8114 1.1824,-4.606 0,-0.7922 0.7876,-1.5773 2.1032,-2.1031 1.3157,-0.5258 7.3728,-1.8438 10.0017,0.264 z m -34.2162,24.7403 -1.0469,1.575 1.0469,2.3719 2.5332,-1.0165 v 4.7017 l 2.421,1.311 2.0213,-2.8907 3.0917,-3.4235 -2.0541,-1.575 -5.4799,-1.0539 v 2.7832 z m -31.5358,6.1365 c 6.4404,5.9427 13.9767,10.6795 22.2936,13.8809 -0.8202,-1.0492 -1.8087,-2.1265 -1.8087,-2.1265 0,0 -1.8415,0 -5.2626,-3.6852 -3.4235,-3.6829 -2.6313,-2.629 -3.4235,-3.6805 -0.7875,-1.054 -0.5281,-1.3134 -2.3696,-2.636 -1.8391,-1.3133 -2.6313,-2.893 -2.6313,-2.893 l -2.8953,-1.0493 -2.3626,1.0493 c 0,0 -2.1102,-0.7922 -1.8484,0.2687 0.072,0.2757 0.1822,0.5702 0.3084,0.8716 z m -8.464,-10.0835 c 0,-1.0539 -1.4255,-1.3086 0,-3.9516 1.8391,-3.4188 0.264,-5.0008 0.264,-5.0008 0,0 -4.475,-3.1548 -5.2672,-3.6829 -0.7876,-0.5258 -2.8931,-3.4235 -1.5774,-2.629 1.318,0.7875 2.8953,1.5727 1.5774,-0.5281 -1.3157,-2.1079 -3.6829,-5.5243 -4.2087,-6.8447 -0.5281,-1.3133 -3.1571,-4.4703 -3.1571,-6.0501 0,-1.5797 -1.0539,-4.7438 -0.7899,-6.0547 0.1823,-0.9208 -0.4042,-3.6245 -0.8599,-4.7322 0.3575,14.7923 5.3374,28.4278 13.5491,39.5793 0.2804,-0.037 0.4697,-0.1052 0.4697,-0.1052 z m 125.5707,-41.18 c 0,-1.339 -0.1262,-2.6453 -0.201,-3.9656 -0.4884,1.2432 -1.2362,2.8603 -1.4114,3.5543 -0.2641,1.0586 -1.8438,4.7415 -1.8438,4.7415 0,0 -1.5774,2.1079 -2.6313,2.6336 -1.0539,0.5258 -1.8438,1.8438 -3.6829,2.8907 -1.8438,1.0586 -2.6336,1.5821 -4.211,1.5821 -1.5821,0 -3.1594,2.1102 -5.0009,3.1594 -1.8437,1.0516 -2.1055,0.5258 -2.1055,0.5258 0,0 2.1055,-3.1618 2.1055,-3.9469 0,-0.7852 2.3673,-2.1032 4.7392,-1.5798 0,0 1.5773,-2.8953 2.3695,-3.6828 0.7852,-0.7922 -0.264,-1.5821 -1.8414,-2.6337 -1.5821,-1.0515 -1.318,-0.7898 -2.1102,-1.5797 -0.7898,-0.7875 -3.4188,-2.1102 -4.211,-2.6289 -0.7898,-0.5282 -3.9469,-2.1055 -5.5266,-0.5282 -0.7665,0.7618 -0.5282,2.3696 -1.0516,3.4235 -0.5235,1.0516 -6.0548,9.2096 -8.6838,12.8901 -0.4603,0.6473 -1.582,2.6383 -2.3719,3.1594 -0.7875,0.5281 1.8438,0.5281 1.8438,0.5281 0,0 0,1.8438 -0.2641,3.1595 -0.264,1.318 0.2641,3.1594 0.2641,3.1594 0,0 -2.6313,-1.5821 -3.4211,-2.1055 -0.7899,-0.5305 -1.5798,1.0492 -2.6337,2.3649 -1.0516,1.3133 -2.1055,2.8977 -2.3695,4.2157 -0.2618,1.3133 1.3179,1.8414 1.3179,1.8414 l 2.3696,1.3133 c 0,0 2.893,0.5258 4.7368,0.2617 1.8414,-0.2617 4.7368,-0.5257 4.7368,-0.5257 0,0 0.7875,1.8461 -0.2664,2.6336 -1.0539,0.7898 -3.4235,2.1055 -4.4774,1.8414 -1.0516,-0.2594 0.5211,1.3157 1.8368,2.3649 l -2.9141,0.5305 c 0,0 -2.6523,-1.3157 -3.4445,-1.5797 -0.7875,-0.2618 -2.1593,-0.7899 -3.2108,-2.1032 -1.054,-1.318 0.4183,-3.1618 -0.6333,-3.6875 -1.0516,-0.5282 -1.762,-0.7899 -2.5519,-1.0493 -0.7875,-0.2641 -3.2926,0 -3.2926,0 -2.7178,0 -0.9745,-2.4794 -0.2711,-3.3604 l -2.1008,2.5682 -1.5587,3.6876 c 0,0 -2.248,1.5773 -3.302,2.1008 -1.0515,0.5281 -4.2881,2.3696 -4.2881,2.3696 l 0.222,-2.3696 3.0543,-3.0893 0.2687,-0.068 1.5867,-2.1032 -3.5099,-0.264 v 2.0774 c -3.2973,0.8016 -2.4327,1.6241 -2.8042,1.8695 -0.7852,0.5281 -2.6173,1.8461 -2.6173,1.8461 0,0 -3.101,-0.5281 -3.8885,-0.7922 -0.7922,-0.2617 -1.0072,-1.0539 -2.5846,-1.5773 -1.5844,-0.5258 -2.2971,-1.3204 -2.8252,-2.1055 -0.5258,-0.7899 -2.2364,-3.1571 -3.288,-4.2134 -1.0539,-1.0516 -3.0052,-0.7875 -3.795,-0.7875 -0.7899,0 -4.5919,1.0516 -4.5919,1.0516 v 4.4727 c 0,0 0.5117,2.5051 0.2547,3.2903 l 2.3041,0.3926 3.8465,0.7922 1.131,0.7898 1.6148,2.1009 c 0,0 -1.8204,1.3226 -0.5071,3.1641 0.6333,0.881 2.907,1.0516 3.9539,1.8391 1.0586,0.7898 2.6407,1.3203 2.6407,1.3203 0,0 1.8461,1.575 3.6875,3.4165 0,0 1.318,0.7945 2.8954,1.318 0,0 4.4751,-3.947 5.2649,-3.947 0.7922,0 3.6852,1.8415 3.6852,1.8415 0,0 0.7899,2.3672 0.5281,3.157 -0.264,0.7899 -1.582,3.4212 -1.582,3.4212 0,0 -0.7852,-1.318 -1.5774,-2.3719 -0.7898,-1.0539 -1.3133,-2.3672 -1.3133,-2.3672 0,0 -3.6875,0.25 -3.9493,1.0399 -0.264,0.7945 -0.7898,2.0914 -1.0562,2.879 -0.2594,0.7921 -2.3673,0.7618 -3.9423,0.2383 -1.582,-0.5281 0.2594,2.8346 0.2594,2.8346 0,0 1.582,1.9887 2.6313,1.9887 1.0516,0 3.4258,1.3507 4.4751,1.6101 1.0516,0.2664 4.2156,1.4722 5.5266,1.4722 1.3133,0 2.8954,-0.5702 3.6852,-0.5702 0.7899,0 3.947,0 3.947,0 l 5.5266,0.444 c 0,0 4.7368,-1.7526 3.1595,-2.8042 0,0 1.8437,-1.1451 2.6336,-1.9303 0.7408,-0.7454 2.6476,0.6824 3.7483,1.2923 19.6997,-12.3643 32.8655,-34.2208 32.8655,-59.1434 z m -69.8392,76.4384 c -42.1474,0 -76.436,-34.2886 -76.436,-76.4384 0,-42.1474 34.2886,-76.436 76.436,-76.436 42.1475,0 76.4384,34.2886 76.4384,76.436 0,42.1498 -34.2909,76.4384 -76.4384,76.4384"
       style="fill:#d9534f;fill-opacity:1;fill-rule:nonzero;stroke:none;stroke-width:0.23368515"
       id="path422"
       inkscape:connector-curvature="0" /></g></svg>