<?xml version="1.0" encoding="UTF-8" standalone="no"?>
<!-- Generator: Adobe Illustrator 19.0.0, SVG Export Plug-In . SVG Version: 6.00 Build 0)  -->

<svg
   xmlns:dc="http://purl.org/dc/elements/1.1/"
   xmlns:cc="http://creativecommons.org/ns#"
   xmlns:rdf="http://www.w3.org/1999/02/22-rdf-syntax-ns#"
   xmlns:svg="http://www.w3.org/2000/svg"
   xmlns="http://www.w3.org/2000/svg"
   xmlns:sodipodi="http://sodipodi.sourceforge.net/DTD/sodipodi-0.dtd"
   xmlns:inkscape="http://www.inkscape.org/namespaces/inkscape"
   version="1.1"
   id="Capa_1"
   x="0px"
   y="0px"
   viewBox="0 0 512.003 512.003"
   style="enable-background:new 0 0 512.003 512.003;"
   xml:space="preserve"
   sodipodi:docname="kudos2.svg"
   inkscape:version="0.92.2 (5c3e80d, 2017-08-06)"><metadata
     id="metadata1682"><rdf:RDF><cc:Work
         rdf:about=""><dc:format>image/svg+xml</dc:format><dc:type
           rdf:resource="http://purl.org/dc/dcmitype/StillImage" /><dc:title></dc:title></cc:Work></rdf:RDF></metadata><defs
     id="defs1680" /><sodipodi:namedview
     pagecolor="#ffffff"
     bordercolor="#666666"
     borderopacity="1"
     objecttolerance="10"
     gridtolerance="10"
     guidetolerance="10"
     inkscape:pageopacity="0"
     inkscape:pageshadow="2"
     inkscape:window-width="1861"
     inkscape:window-height="1020"
     id="namedview1678"
     showgrid="false"
     inkscape:zoom="1.5937407"
     inkscape:cx="155.60875"
     inkscape:cy="306.19787"
     inkscape:window-x="59"
     inkscape:window-y="32"
     inkscape:window-maximized="1"
     inkscape:current-layer="Capa_1" /><g
     id="g1645"><g
       id="g1643"><g
         id="g1641"><path
           d="M502.977,253.031c-5.18-3.106-10.867-5.221-16.769-6.27c4.127-2.242,7.955-5.087,11.37-8.5     c12.403-12.404,17.294-30.646,12.763-47.607c-0.924-3.457-3.623-6.157-7.08-7.081c-4.154-1.109-8.447-1.672-12.757-1.672     c-1.74,0-3.467,0.096-5.176,0.272c3.379-3.297,6.324-7.081,8.668-11.312c8.504-15.342,8.178-34.225-0.852-49.279     c-1.84-3.069-5.188-4.908-8.758-4.855c-6.148,0.112-12.12,1.401-17.661,3.659c2.359-4.118,4.158-8.588,5.252-13.324     c3.945-17.091-1.574-35.152-14.403-47.136c-2.615-2.442-6.336-3.301-9.758-2.254c-7.76,2.379-14.669,6.628-20.263,12.182     c-1.027-2.483-2.24-4.906-3.688-7.223c-9.066-14.511-24.708-23.174-41.838-23.174c-0.559,0-1.119,0.01-1.678,0.028     c-3.578,0.122-6.816,2.146-8.494,5.308c-8.227,15.509-7.564,34.384,1.729,49.259c1.445,2.313,3.076,4.46,4.834,6.465     c-7.465,2.617-14.298,7.003-19.792,12.886c-2.441,2.615-3.301,6.337-2.252,9.759c3.695,12.051,11.874,22.065,22.509,28.23     c-0.301,0.986-0.469,2.02-0.449,3.081c0.23,12.603,5.33,24.484,13.856,33.343c-0.561,0.865-1.006,1.813-1.279,2.839     c-3.254,12.181-1.625,25.009,4.131,35.874c-0.781,0.677-1.475,1.462-2.02,2.373c-6.482,10.812-8.453,23.59-5.916,35.616     c-0.936,0.438-1.816,1.005-2.592,1.729c-9.211,8.604-14.628,20.346-15.505,32.606c-1.02,0.162-2.023,0.465-2.969,0.948     c-11.227,5.732-19.669,15.524-23.892,27.066c-1.025-0.124-2.072-0.109-3.115,0.095c-17.23,3.364-31.481,15.757-37.195,32.344     c-4.283,12.44-3.326,25.98,2.275,37.567c-15.384,4.134-31.542,6.352-48.213,6.352c-16.669,0-32.827-2.218-48.211-6.352     c5.601-11.586,6.557-25.127,2.275-37.57c-5.713-16.585-19.966-28.976-37.196-32.34c-1.042-0.204-2.089-0.218-3.112-0.094     c-4.224-11.544-12.667-21.335-23.892-27.067c-0.946-0.482-1.95-0.785-2.969-0.948c-0.877-12.261-6.295-24.001-15.508-32.607     c-0.775-0.725-1.655-1.291-2.59-1.729c2.536-12.029,0.565-24.808-5.919-35.619c-0.546-0.911-1.236-1.699-2.013-2.378     c5.753-10.862,7.379-23.689,4.126-35.867c-0.273-1.025-0.72-1.973-1.279-2.838c8.525-8.857,13.626-20.739,13.857-33.343     c0.02-1.063-0.148-2.096-0.448-3.083c10.635-6.163,18.812-16.179,22.507-28.228c1.049-3.422,0.191-7.143-2.252-9.758     c-5.494-5.882-12.326-10.268-19.792-12.887c1.759-2.005,3.388-4.151,4.833-6.465c9.296-14.877,9.958-33.753,1.728-49.26     c-1.677-3.161-4.916-5.185-8.492-5.307c-0.559-0.019-1.119-0.028-1.678-0.028c-17.131,0-32.771,8.663-41.838,23.174     c-1.447,2.316-2.66,4.739-3.688,7.223c-5.594-5.553-12.503-9.802-20.265-12.182c-3.42-1.049-7.141-0.189-9.756,2.254     c-12.83,11.984-18.349,30.045-14.403,47.137c1.094,4.734,2.895,9.205,5.252,13.323c-5.541-2.258-11.512-3.547-17.659-3.659     c-3.605-0.062-6.918,1.786-8.758,4.854c-9.031,15.056-9.359,33.94-0.855,49.279c2.345,4.23,5.29,8.015,8.67,11.312     c-1.708-0.177-3.435-0.272-5.176-0.272c-4.309,0-8.6,0.563-12.757,1.672c-3.457,0.924-6.157,3.624-7.08,7.082     c-4.529,16.964,0.361,35.205,12.765,47.607c3.413,3.412,7.242,6.257,11.369,8.499c-5.9,1.05-11.589,3.164-16.77,6.27     c-3.07,1.841-4.922,5.182-4.856,8.761c0.323,17.555,10.054,33.742,25.394,42.243c4.19,2.322,8.698,3.994,13.347,5.016     c-5.384,2.625-10.309,6.221-14.467,10.673c-2.442,2.615-3.301,6.335-2.253,9.756c5.146,16.788,18.961,29.665,36.052,33.609     c3.656,0.845,7.399,1.272,11.123,1.272c1.041,0,2.076-0.045,3.11-0.111c-4.438,3.982-8.198,8.77-10.986,14.229     c-1.627,3.188-1.428,7.001,0.523,10c9.141,14.051,24.581,22.439,41.303,22.439c0.869,0,1.75-0.023,2.616-0.069     c4.853-0.254,9.569-1.25,14.035-2.857c-3.186,5.064-5.492,10.72-6.67,16.755c-0.687,3.513,0.557,7.124,3.26,9.47     c8.986,7.798,20.472,12.094,32.337,12.094c5.453,0,10.852-0.906,16.05-2.695c13.698-4.717,24.52-15.269,29.772-28.505     c5.724,1.66,11.552,3.074,17.467,4.238c-3.792,3.657-7.11,7.856-9.808,12.531c-2.761,4.783-1.121,10.899,3.662,13.66     c4.784,2.76,10.899,1.121,13.661-3.662c6.639-11.505,19.017-18.651,32.302-18.651s25.665,7.147,32.303,18.651     c1.852,3.209,5.213,5.003,8.67,5.003c1.695,0,3.416-0.432,4.99-1.341c4.783-2.761,6.422-8.876,3.662-13.66     c-2.697-4.674-6.016-8.873-9.809-12.532c5.916-1.163,11.745-2.577,17.468-4.237c5.252,13.236,16.075,23.787,29.774,28.505     c5.195,1.788,10.594,2.695,16.05,2.695c0,0,0,0,0.002,0c11.866,0,23.349-4.295,32.333-12.095c2.703-2.346,3.945-5.956,3.26-9.469     c-1.178-6.034-3.484-11.69-6.67-16.755c4.465,1.607,9.18,2.604,14.032,2.857c0.871,0.046,1.746,0.035,2.619,0.069     c16.72,0,32.161-8.389,41.303-22.437c1.953-3,2.152-6.815,0.523-10.003c-2.787-5.458-6.547-10.244-10.984-14.228     c1.033,0.066,2.068,0.111,3.109,0.111c0,0,0,0,0.002,0c3.723,0,7.465-0.428,11.12-1.271     c17.091-3.943,30.905-16.821,36.055-33.607c1.049-3.422,0.191-7.144-2.252-9.759c-4.158-4.451-9.084-8.047-14.468-10.672     c4.646-1.021,9.154-2.692,13.347-5.016c15.341-8.503,25.071-24.69,25.392-42.245C507.9,258.211,506.048,254.871,502.977,253.031z      M117.794,285.551c4.665,6.721,6.388,15.212,4.513,23.33c-1.875,8.121-7.145,14.998-14.284,18.993     c-4.664-6.72-6.386-15.212-4.511-23.331C105.386,296.424,110.656,289.547,117.794,285.551z M85.372,259.131     c4.04-7.289,11-12.447,18.964-14.32c2.632,7.745,1.947,16.382-2.093,23.67c-4.041,7.289-11.001,12.448-18.965,14.321     C80.645,275.057,81.33,266.42,85.372,259.131z M73.383,232.695c-0.49,0-0.98-0.013-1.469-0.037     c-0.396-8.171,2.643-16.286,8.537-22.179c5.531-5.533,12.886-8.579,20.707-8.579c0.489,0,0.979,0.012,1.467,0.036     c0.396,8.172-2.642,16.288-8.536,22.181C88.557,229.649,81.203,232.695,73.383,232.695z M105.1,73.227     c4.457-7.131,11.589-11.887,19.685-13.318c2.227,7.875,1.092,16.471-3.328,23.543c-4.455,7.132-11.586,11.888-19.683,13.319     C99.548,88.893,100.682,80.298,105.1,73.227z M110.74,118.486c2.183-0.504,4.41-0.759,6.623-0.759     c5.988,0,11.831,1.875,16.71,5.267c-3.996,7.14-10.873,12.411-18.995,14.286c-2.182,0.504-4.408,0.76-6.619,0.76c0,0,0,0-0.001,0     c-5.987-0.001-11.832-1.876-16.711-5.27C95.743,125.631,102.62,120.361,110.74,118.486z M89.132,162.353     c4.342-2.406,9.238-3.679,14.163-3.679c3.248,0,6.46,0.538,9.509,1.579c-1.872,7.966-7.03,14.931-14.322,18.972     c-4.34,2.406-9.236,3.678-14.159,3.678c-3.25,0-6.463-0.538-9.513-1.58C76.681,173.357,81.84,166.394,89.132,162.353z      M64.028,79.23c7.138,3.994,12.408,10.871,14.283,18.993c1.338,5.798,0.834,11.781-1.256,17.179     c-1.15,2.017-2.27,4.048-3.348,6.096c-7.092-4.003-12.325-10.852-14.191-18.937C57.641,94.441,59.363,85.95,64.028,79.23z      M33.408,137.493c7.962,1.873,14.923,7.029,18.964,14.317c2.853,5.146,4.023,10.965,3.545,16.668     c-0.563,2.313-1.09,4.638-1.572,6.972c-7.913-1.896-14.825-7.035-18.844-14.288C31.461,153.874,30.775,145.239,33.408,137.493z      M20.035,201.935c0.488-0.024,0.977-0.036,1.467-0.036c7.822,0,15.177,3.046,20.708,8.579c4.233,4.231,6.983,9.61,8.057,15.331     c0.094,2.293,0.214,4.578,0.383,6.851c-0.456,0.02-0.912,0.034-1.37,0.034c-7.821,0-15.176-3.047-20.709-8.578     C22.678,218.223,19.639,210.109,20.035,201.935z M39.26,286.54c-7.288-4.039-12.446-11.003-14.319-18.969     c3.049-1.041,6.261-1.58,9.508-1.58c4.923,0,9.82,1.272,14.163,3.68c5.193,2.879,9.297,7.246,11.911,12.397     c0.736,2.217,1.504,4.418,2.313,6.601c-3.021,1.02-6.198,1.551-9.411,1.551C48.502,290.22,43.604,288.948,39.26,286.54z      M73.367,344.361c-2.213,0-4.44-0.256-6.625-0.76c-8.12-1.874-14.997-7.143-18.991-14.284c4.877-3.393,10.719-5.268,16.706-5.268     c2.213,0,4.441,0.256,6.625,0.76c5.989,1.383,11.298,4.616,15.276,9.08c1.211,1.756,2.447,3.492,3.711,5.208     C85.191,342.487,79.351,344.361,73.367,344.361z M108.889,390.875c-8.438,0.443-16.411-2.706-22.2-8.483     c5.174-6.342,12.864-10.341,21.19-10.778c6.168-0.321,12.079,1.279,17.075,4.413c1.682,1.391,3.392,2.747,5.117,4.084     C124.895,386.445,117.21,390.44,108.889,390.875z M141.962,321.003c6.336,5.174,10.332,12.861,10.768,21.183     c0.435,8.321-2.734,16.385-8.494,22.193c-6.336-5.176-10.331-12.863-10.768-21.185     C133.031,334.873,136.201,326.811,141.962,321.003z M162.434,424.702c-7.855,2.703-16.567,1.881-23.68-2.042     c3.228-7.519,9.516-13.482,17.397-16.196c5.639-1.941,11.716-2.056,17.327-0.521c2.088,0.916,4.189,1.805,6.311,2.653     C176.55,416.074,170.281,421.999,162.434,424.702z M189.106,389.49c-7.518-3.229-13.478-9.517-16.191-17.397     c-2.713-7.879-1.888-16.504,2.047-23.674c7.518,3.227,13.478,9.515,16.192,17.394     C193.866,373.693,193.042,382.317,189.106,389.49z M490.505,201.899c0.49,0,0.979,0.012,1.467,0.036     c0.396,8.172-2.643,16.287-8.535,22.181c-5.531,5.532-12.888,8.578-20.71,8.578c-0.457,0-0.914-0.014-1.369-0.034     c0.168-2.273,0.289-4.557,0.383-6.849c1.072-5.721,3.824-11.102,8.057-15.334C475.328,204.945,482.681,201.899,490.505,201.899z      M459.635,151.812c4.039-7.288,11-12.445,18.964-14.318c2.629,7.744,1.945,16.381-2.096,23.67     c-4.018,7.251-10.93,12.391-18.843,14.288c-0.482-2.335-1.01-4.658-1.572-6.972C455.61,162.778,456.782,156.958,459.635,151.812z      M433.697,98.222c1.875-8.12,7.145-14.997,14.28-18.992c4.664,6.721,6.387,15.212,4.512,23.332     c-1.865,8.083-7.098,14.933-14.189,18.937c-1.08-2.049-2.197-4.08-3.348-6.097C432.861,110.003,432.357,104.02,433.697,98.222z      M417.917,224.116c-5.895-5.893-8.932-14.009-8.537-22.181c0.488-0.024,0.977-0.036,1.467-0.036     c7.822,0,15.177,3.047,20.71,8.579c5.895,5.894,8.934,14.009,8.537,22.179c-0.488,0.025-0.979,0.037-1.469,0.037     C430.802,232.695,423.449,229.648,417.917,224.116z M428.73,282.802c-7.963-1.873-14.925-7.03-18.966-14.321     c-4.041-7.287-4.725-15.923-2.094-23.67c7.963,1.873,14.925,7.031,18.964,14.321C430.677,266.42,431.361,275.057,428.73,282.802z      M437.195,181.323c-3.049,1.041-6.262,1.579-9.51,1.579c-4.924,0-9.82-1.271-14.161-3.677     c-7.291-4.042-12.448-11.007-14.321-18.973c3.049-1.04,6.26-1.579,9.508-1.579c4.922,0,9.82,1.272,14.163,3.68     C430.166,166.394,435.324,173.357,437.195,181.323z M387.22,59.908c8.096,1.432,15.228,6.187,19.685,13.319     c4.418,7.07,5.553,15.666,3.326,23.542c-8.096-1.433-15.228-6.188-19.685-13.319C386.129,76.38,384.994,67.785,387.22,59.908z      M377.933,122.994c4.879-3.392,10.724-5.267,16.71-5.267c2.211,0,4.439,0.255,6.623,0.759     c8.121,1.875,14.999,7.146,18.993,14.285c-4.879,3.394-10.721,5.27-16.71,5.27c-2.211,0-4.438-0.256-6.621-0.76     C388.806,135.405,381.929,130.134,377.933,122.994z M394.211,285.551c7.139,3.995,12.409,10.872,14.284,18.99     c1.875,8.121,0.15,16.613-4.514,23.333c-7.137-3.995-12.407-10.872-14.28-18.993     C387.826,300.762,389.549,292.271,394.211,285.551z M322.899,389.49c-3.936-7.171-4.762-15.796-2.049-23.675     c2.713-7.88,8.674-14.168,16.19-17.396c3.936,7.17,4.762,15.796,2.051,23.675C336.379,379.972,330.418,386.261,322.899,389.49z      M349.574,424.702c-7.85-2.703-14.118-8.629-17.356-16.106c2.156-0.862,4.291-1.766,6.412-2.698c2.49-0.68,5.072-1.04,7.688-1.04     c3.233,0,6.441,0.54,9.535,1.604c7.881,2.715,14.171,8.678,17.397,16.197C366.137,426.584,357.426,427.404,349.574,424.702z      M378.537,343.198c-0.434,8.319-4.43,16.007-10.766,21.182c-5.76-5.809-8.93-13.872-8.494-22.193     c0.435-8.32,4.432-16.008,10.768-21.183C375.806,326.812,378.974,334.874,378.537,343.198z M404.688,390.917     c-0.521,0-1.045-0.014-1.572-0.042c-8.32-0.435-16.005-4.429-21.179-10.766c1.727-1.338,3.436-2.695,5.119-4.087     c4.996-3.134,10.904-4.736,17.071-4.409c8.324,0.436,16.017,4.436,21.19,10.778C419.888,387.809,412.522,390.917,404.688,390.917     z M445.262,343.601c-2.184,0.504-4.41,0.76-6.621,0.76h-0.002c-5.984,0-11.825-1.874-16.702-5.264     c1.262-1.716,2.498-3.451,3.709-5.206c3.979-4.465,9.287-7.699,15.278-9.082c2.182-0.504,4.41-0.76,6.623-0.76     c5.986,0,11.831,1.875,16.71,5.268C460.26,336.457,453.384,341.727,445.262,343.601z M472.744,286.541     c-4.342,2.406-9.238,3.679-14.163,3.679c-3.213,0-6.393-0.531-9.412-1.551c0.809-2.18,1.576-4.379,2.313-6.593     c2.611-5.154,6.717-9.523,11.913-12.405c4.342-2.407,9.238-3.68,14.163-3.68c3.248,0,6.459,0.539,9.51,1.58     C485.194,275.538,480.035,282.5,472.744,286.541z"
           id="path1635" /><path
           d="M202.251,452.55c-5.507,0-9.999,4.49-9.999,9.999c0,5.508,4.492,9.998,9.999,9.998c5.507,0,9.999-4.49,9.999-9.998     S207.758,452.55,202.251,452.55z"
           id="path1637" /><path
           d="M309.756,452.55c-5.506,0-9.998,4.49-9.998,9.999c0,5.508,4.492,9.998,9.998,9.998c5.508,0,9.998-4.49,9.998-9.998     S315.264,452.55,309.756,452.55z"
           id="path1639" /></g></g></g><g
     id="g1647" /><g
     id="g1649" /><g
     id="g1651" /><g
     id="g1653" /><g
     id="g1655" /><g
     id="g1657" /><g
     id="g1659" /><g
     id="g1661" /><g
     id="g1663" /><g
     id="g1665" /><g
     id="g1667" /><g
     id="g1669" /><g
     id="g1671" /><g
     id="g1673" /><g
     id="g1675" /><text
     xml:space="preserve"
     style="font-style:normal;font-variant:normal;font-weight:bold;font-stretch:normal;font-size:239.06367493px;line-height:1.25;font-family:sans-serif;-inkscape-font-specification:'sans-serif Bold';letter-spacing:0px;word-spacing:0px;fill:#000000;fill-opacity:1;stroke:none;stroke-width:0.89648879"
     x="158.27669"
     y="310.96042"
     id="text4438"
     transform="scale(0.97605902,1.0245282)"><tspan
       sodipodi:role="line"
       id="tspan4436"
       x="158.27669"
       y="310.96042"
       style="font-style:normal;font-variant:normal;font-weight:bold;font-stretch:normal;font-size:358.59552002px;font-family:Dyuthi;-inkscape-font-specification:'Dyuthi Bold';stroke-width:0.89648879">K</tspan></text>
</svg>